<?xml version="1.0" standalone="no"?>
<!DOCTYPE svg PUBLIC "-//W3C//DTD SVG 1.1//EN" "http://www.w3.org/Graphics/SVG/1.1/DTD/svg11.dtd" >
<svg xmlns="http://www.w3.org/2000/svg">
<metadata>
This is a custom SVG webfont generated by Font Squirrel.
Copyright   :  ITC Franklin Gothic is a trademark of The International Typeface Corporation which may be registered in certain jurisdictions Portions copyright Microsoft Corporation  All rights reserved
Designer    : Victor Caruso
Foundry     : International Typeface Corporation
Foundry URL : httpwwwitcfontscom
</metadata>
<defs>
<font id="FranklinGothicMediumItalic" horiz-adv-x="1201" >
<font-face units-per-em="2048" ascent="1638" descent="-410" />
<missing-glyph horiz-adv-x="512" />
<glyph unicode=" "  horiz-adv-x="512" />
<glyph unicode="&#x09;" horiz-adv-x="512" />
<glyph unicode="&#xa0;" horiz-adv-x="512" />
<glyph unicode="!" horiz-adv-x="505" d="M45 0l42 253h246l-42 -253h-246zM172 380l34 985h290l-220 -985h-104z" />
<glyph unicode="&#x22;" horiz-adv-x="768" d="M193 823l57 542h217l-124 -542h-150zM530 823l57 542h217l-124 -542h-150z" />
<glyph unicode="#" d="M79 401l42 191h209l46 209h-207l42 193h208l83 371h185l-82 -371h194l84 371h185l-83 -371h201l-42 -193h-200l-46 -209h200l-43 -193h-201l-89 -399h-185l89 399h-197l-89 -399h-189l90 401h-205zM515 592h196l45 209h-194z" />
<glyph unicode="$" d="M53 378l189 67q49 -195 220 -231l67 404q-336 87 -336 356q0 164 119.5 271t296.5 107q18 0 43 -2l24 145h132l-27 -163q246 -47 329 -267l-185 -66q-56 138 -173 161l-59 -352q143 -47 202 -80.5t110 -117.5t51 -181q0 -172 -128 -290t-322 -118q-19 0 -44 3l-29 -177 h-133l32 192q-296 62 -379 339zM397 1003q0 -124 169 -167l56 339q-114 0 -169.5 -51.5t-55.5 -120.5zM591 195q20 -1 30 -1q99 0 163.5 57.5t64.5 140.5q0 153 -194 189z" />
<glyph unicode="%" horiz-adv-x="1532" d="M145 967q0 157 92.5 291.5t244.5 134.5q115 0 196.5 -86t81.5 -242q0 -157 -93 -295t-249 -138q-114 0 -193.5 92.5t-79.5 242.5zM220 0l998 1365h150l-995 -1365h-153zM316 922q0 -80 33 -115.5t74 -35.5q48 0 81.5 28.5t58.5 112t25 180.5q0 160 -111 160 q-82 0 -121.5 -103.5t-39.5 -226.5zM834 308q0 177 100 305t237 128q117 0 197 -94.5t80 -244.5q0 -164 -96.5 -294t-241.5 -130q-122 0 -199 90.5t-77 239.5zM1004 286q0 -167 116 -167q77 0 116.5 104t39.5 212q0 165 -114 165q-86 0 -122 -105.5t-36 -208.5z" />
<glyph unicode="&#x26;" horiz-adv-x="1419" d="M49 378q0 310 396 433q-84 130 -84 257q0 133 94.5 235t251.5 102q165 0 264 -90.5t99 -225.5q0 -245 -323 -348l243 -342q186 210 249 434l187 -52q-110 -330 -325 -524q57 -96 175 -96q16 0 46 1l-33 -197q-40 -4 -66 -4q-102 0 -156.5 30t-124.5 116 q-171 -155 -414 -155q-215 0 -347 122.5t-132 303.5zM289 384q0 -94 71.5 -163.5t182.5 -69.5q143 0 288 106l-285 405q-257 -94 -257 -278zM577 1069q0 -84 85 -185l52 23q153 69 153 174q0 57 -41.5 93.5t-104.5 36.5q-68 0 -106 -44.5t-38 -97.5z" />
<glyph unicode="'" horiz-adv-x="431" d="M193 823l57 542h217l-124 -542h-150z" />
<glyph unicode="(" horiz-adv-x="601" d="M62 376q0 293 143.5 558t328.5 431h154q-208 -233 -324.5 -514.5t-116.5 -554.5q0 -327 153 -651h-127q-211 366 -211 731z" />
<glyph unicode=")" horiz-adv-x="601" d="M-88 -355q205 228 324 509.5t119 559.5q0 324 -155 651h127q213 -364 213 -732q0 -296 -146.5 -562t-327.5 -426h-154z" />
<glyph unicode="*" d="M245 1058l74 143l303 -174l43 346l158 -27l-72 -341l343 66l24 -159l-347 -37l168 -305l-144 -72l-142 318l-238 -254l-113 114l259 234z" />
<glyph unicode="+" d="M125 594v191h411v426h190v-426h411v-191h-411v-425h-190v425h-411z" />
<glyph unicode="," horiz-adv-x="493" d="M-15 -295l170 295h-113l42 249h239l-38 -229l-213 -315h-87z" />
<glyph unicode="-" horiz-adv-x="493" d="M-14 414l31 183h490l-31 -183h-490z" />
<glyph unicode="." horiz-adv-x="493" d="M42 0l42 250h239l-42 -250h-239z" />
<glyph unicode="/" horiz-adv-x="890" d="M-243 -355l1062 1720h154l-1066 -1720h-150z" />
<glyph unicode="0" d="M95 560q0 306 163 573.5t452 267.5q191 0 324 -151t133 -456q0 -134 -52 -328t-197 -349t-352 -155q-237 0 -354 177t-117 421zM332 482q0 -158 62.5 -245.5t173.5 -87.5q191 0 278.5 257t87.5 479q0 160 -65 244.5t-179 84.5q-180 0 -269 -250.5t-89 -481.5z" />
<glyph unicode="1" d="M80 0l36 213h396l145 869q-57 -56 -175.5 -93.5t-209.5 -37.5q-12 0 -33 1l35 209q359 31 511 254h158l-201 -1202h402l-36 -213h-1028z" />
<glyph unicode="2" d="M10 0l32 249q208 115 445.5 272.5t320 260t82.5 209.5q0 91 -62 150.5t-153 59.5q-108 0 -190.5 -76t-114.5 -212l-212 93q71 197 210 302t315 105q195 0 326.5 -120t131.5 -299q0 -149 -80 -272t-327.5 -269.5t-455.5 -234.5h781l-37 -218h-1012z" />
<glyph unicode="3" d="M37 340l217 56q18 -102 99 -166.5t195 -64.5q121 0 199 67.5t78 170.5q0 79 -43 130.5t-97 60t-247 8.5l32 194q33 -2 59 -2q201 0 281 65t80 159q0 83 -64 132.5t-156 49.5q-203 0 -300 -201l-207 95q182 304 513 304q201 0 329.5 -103.5t128.5 -257.5q0 -121 -82 -212 t-222 -115q119 -32 179 -120t60 -196q0 -170 -137.5 -298.5t-388.5 -128.5q-205 0 -336 104.5t-170 268.5z" />
<glyph unicode="4" d="M55 309l35 220l729 881h250l-150 -895h212l-35 -206h-212l-51 -309h-235l52 309h-595zM290 510q55 5 95 5h306l100 577q7 43 14 55q-57 -85 -102 -139z" />
<glyph unicode="5" d="M76 302l214 58q18 -85 92.5 -142.5t170.5 -57.5q118 0 205 86t87 217q0 110 -70 179t-169 69q-154 0 -251 -149l-193 85l193 721h803l-53 -210h-608l-108 -389q120 149 293 149q180 0 299 -129t119 -304q0 -221 -158.5 -371.5t-379.5 -150.5q-173 0 -308 92t-178 247z " />
<glyph unicode="6" d="M111 556q0 305 167 575t461 270q191 0 306.5 -100.5t144.5 -258.5l-222 -37q-41 209 -238 209q-162 0 -258 -170.5t-115 -358.5q114 199 348 199q165 0 285.5 -126t120.5 -315q0 -195 -139.5 -337t-351.5 -142q-224 0 -366.5 158t-142.5 434zM357 415q0 -96 66.5 -181 t186.5 -85q109 0 188 80.5t79 200.5q0 115 -79 186t-177 71q-112 0 -188 -80.5t-76 -191.5z" />
<glyph unicode="7" d="M192 1148l66 217h938l-32 -192q-51 -32 -219.5 -248t-265.5 -448t-118 -477h-279q2 6 22 94q51 227 126 388.5t213 338.5t312 327h-763z" />
<glyph unicode="8" d="M55 318q0 121 78.5 224.5t257.5 142.5q-202 109 -202 307q0 157 137 282t381 125q200 0 327 -93t127 -242q0 -232 -288 -332q111 -46 173 -134t62 -188q0 -183 -150.5 -312.5t-391.5 -129.5q-259 0 -385 99.5t-126 250.5zM284 345q0 -87 74.5 -141t205.5 -54 q148 0 223 64t75 141q0 60 -52.5 118t-249.5 128q-276 -80 -276 -256zM440 1039q0 -79 69 -132t215 -100q78 27 150 92.5t72 144.5q0 75 -66 127t-188 52q-120 0 -186 -53t-66 -131z" />
<glyph unicode="9" d="M75 245l206 68q74 -159 235 -159q158 0 258.5 156t130.5 397q-116 -221 -348 -221q-173 0 -288 118.5t-115 303.5q0 207 139 350.5t363 143.5q204 0 346.5 -151t142.5 -430q0 -322 -173.5 -588t-466.5 -266q-166 0 -279.5 82.5t-150.5 195.5zM384 933q0 -109 70.5 -181 t174.5 -72q113 0 189.5 85.5t76.5 199.5q0 104 -71.5 176.5t-172.5 72.5q-113 0 -190 -84t-77 -197z" />
<glyph unicode=":" horiz-adv-x="493" d="M42 0l42 250h239l-42 -250h-239zM149 638l42 249h238l-41 -249h-239z" />
<glyph unicode=";" horiz-adv-x="493" d="M-15 -295l170 295h-113l42 249h239l-38 -229l-213 -315h-87zM149 638l42 249h239l-42 -249h-239z" />
<glyph unicode="&#x37e;" horiz-adv-x="493" d="M-15 -295l170 295h-113l42 249h239l-38 -229l-213 -315h-87zM149 638l42 249h239l-42 -249h-239z" />
<glyph unicode="&#x3c;" d="M187 584v196l887 441v-230l-641 -310l640 -310l1 -229z" />
<glyph unicode="=" d="M124 434v191h1012v-191h-1012zM124 733v191h1012v-191h-1012z" />
<glyph unicode="&#x3e;" d="M187 142v230l642 310l-641 311l-1 228l887 -442v-196z" />
<glyph unicode="?" horiz-adv-x="991" d="M121 1022q65 178 191.5 276.5t287.5 98.5q185 0 299 -108.5t114 -269.5q0 -94 -53 -198t-233 -195q-111 -56 -139.5 -108t-32.5 -137h-189q24 183 59 241t173 149q174 115 174 243q0 79 -53.5 130t-133.5 51q-94 0 -163.5 -68.5t-97.5 -183.5zM283 0l42 254h246l-43 -254 h-245z" />
<glyph unicode="@" horiz-adv-x="1502" d="M77 674q0 307 219.5 515t524.5 208q291 0 485.5 -175t194.5 -438q0 -201 -115 -355t-274 -154q-57 0 -107.5 28t-70.5 76q-87 -108 -212 -108q-123 0 -207 103t-84 271q0 173 95 294t252 121q138 0 206 -89l11 70h172l-76 -466q-10 -62 -10 -98q0 -62 62 -62 q78 0 147.5 106.5t69.5 251.5q0 220 -157 355t-381 135q-245 0 -413 -168.5t-168 -414.5q0 -235 157 -401.5t433 -166.5q216 0 436 118l53 -136q-237 -125 -486 -125q-370 0 -563.5 215t-193.5 490zM609 639q0 -97 41 -150.5t101 -53.5q86 0 148 86t62 192q0 90 -46 135.5 t-120 45.5q-90 0 -138 -69.5t-48 -185.5z" />
<glyph unicode="A" horiz-adv-x="1234" d="M-57 0l654 1365h303l250 -1365h-273l-56 330h-495l-152 -330h-231zM410 520h388l-107 606z" />
<glyph unicode="B" horiz-adv-x="1251" d="M66 0l228 1365h478q129 0 212.5 -26t148.5 -110.5t65 -202.5q0 -243 -256 -324q213 -94 213 -309q0 -141 -98.5 -267t-383.5 -126h-607zM344 201h278q110 0 163 18.5t88 70t35 126.5q0 68 -36.5 116.5t-83 64t-127.5 15.5h-248zM444 800h243q161 0 213.5 63.5t52.5 133.5 q0 179 -230 179h-216z" />
<glyph unicode="C" horiz-adv-x="1211" d="M103 561q0 345 179 592.5t460 247.5q219 0 347 -127t146 -352l-222 -40q-30 314 -276 314q-199 0 -286.5 -236t-87.5 -449q0 -166 73.5 -250t187.5 -84q105 0 190.5 81.5t130.5 198.5l200 -83q-175 -410 -541 -410q-222 0 -361.5 160.5t-139.5 436.5z" />
<glyph unicode="D" horiz-adv-x="1310" d="M65 0l228 1365h401q139 0 224 -25t164 -96.5t128.5 -196.5t49.5 -288q0 -191 -71.5 -358t-174 -257t-199.5 -117t-278 -27h-472zM349 206h218q109 0 174.5 28.5t126 97.5t97 198t36.5 266q0 112 -37.5 202t-110 127.5t-196.5 37.5h-147z" />
<glyph unicode="E" horiz-adv-x="1099" d="M65 0l228 1365h863l-36 -214h-618l-59 -354h512l-34 -202h-512l-64 -381h643l-36 -214h-887z" />
<glyph unicode="F" horiz-adv-x="1017" d="M65 0l228 1365h840l-36 -214h-589l-62 -369h490l-34 -203h-490l-97 -579h-250z" />
<glyph unicode="G" horiz-adv-x="1325" d="M103 564q0 350 183 595t482 245q393 0 498 -404l-216 -54q-69 247 -287 247q-182 0 -289 -193.5t-107 -441.5q0 -192 77.5 -285t208.5 -93q233 0 313 321h-297l34 206h526l-118 -707h-106l-41 184q-111 -209 -372 -209q-219 0 -354 151.5t-135 437.5z" />
<glyph unicode="H" horiz-adv-x="1323" d="M65 0l228 1365h245l-94 -559h534l94 559h244l-228 -1365h-245l99 591h-534l-99 -591h-244z" />
<glyph unicode="I" horiz-adv-x="553" d="M65 0l228 1365h253l-228 -1365h-253z" />
<glyph unicode="J" horiz-adv-x="767" d="M-85 -3l39 204q74 -8 136 -8q155 0 207 60t77 209l151 903h250l-145 -863q-33 -200 -77.5 -299.5t-149 -163.5t-278.5 -64q-93 0 -210 22z" />
<glyph unicode="K" horiz-adv-x="1264" d="M65 0l228 1365h245l-100 -595q-3 -17 -31 -144q36 56 77 101l576 638h262l-447 -487l270 -878h-258l-203 685l-318 -348l-57 -337h-244z" />
<glyph unicode="L" horiz-adv-x="1000" d="M65 0l228 1365h260l-193 -1151h560l-36 -214h-819z" />
<glyph unicode="M" horiz-adv-x="1633" d="M66 0l228 1365h375l141 -917l417 917h400l-228 -1365h-245l208 1243l-582 -1243h-133l-184 1232l-206 -1232h-191z" />
<glyph unicode="N" horiz-adv-x="1330" d="M65 0l228 1365h253l425 -937l157 937h195l-229 -1365h-195l-466 1026l-171 -1026h-197z" />
<glyph unicode="O" horiz-adv-x="1324" d="M104 581q0 314 176 568.5t471 254.5q246 0 387.5 -165t141.5 -453q0 -322 -179 -572.5t-476 -250.5q-217 0 -369 169.5t-152 448.5zM363 538q0 -200 79 -285t192 -85q198 0 291 219t93 454q0 358 -282 358q-188 0 -280.5 -225.5t-92.5 -435.5z" />
<glyph unicode="P" horiz-adv-x="1223" d="M65 0l228 1365h366q178 0 260 -7.5t160 -53.5t126 -132.5t48 -193.5q0 -142 -77.5 -251.5t-181 -144.5t-253.5 -35h-329l-92 -547h-255zM446 748h242q128 0 179 16.5t90 72t39 134.5q0 74 -35 121.5t-83 60.5t-172 13h-191z" />
<glyph unicode="Q" horiz-adv-x="1312" d="M103 574q0 311 173 568t472 257q244 0 380 -162.5t136 -459.5q0 -257 -116.5 -467.5t-311.5 -289.5q1 -103 170 -103q59 0 113 11l-22 -207q-57 -9 -155 -9q-117 0 -177.5 30t-88.5 80t-28 150q-26 -4 -46 -4q-234 0 -366.5 167.5t-132.5 438.5zM362 521 q0 -165 67 -256.5t179 -91.5q205 0 303 208t98 435q0 384 -269 384q-180 0 -279 -217.5t-99 -461.5z" />
<glyph unicode="R" horiz-adv-x="1309" d="M65 0l228 1365h514q154 0 244 -28.5t161.5 -125.5t71.5 -222q0 -134 -79 -248.5t-244 -151.5l167 -589h-261l-145 560h-319l-94 -560h-244zM436 759h339q156 0 205.5 69.5t49.5 146.5q0 66 -34.5 113t-81.5 62.5t-141 15.5h-269z" />
<glyph unicode="S" horiz-adv-x="1132" d="M-16 311l223 79q81 -214 326 -214q140 0 208 64.5t68 146.5q0 47 -25.5 81.5t-64.5 52.5t-156 51q-163 47 -243.5 89t-131 122t-50.5 190q0 187 135 306t368 119q344 0 474 -292l-224 -83q-72 170 -260 170q-114 0 -177.5 -53.5t-63.5 -132.5q0 -61 43 -99.5t142 -66.5 l187 -55q81 -23 154 -73t109 -125t36 -158q0 -186 -138.5 -322.5t-404.5 -136.5q-412 0 -534 340z" />
<glyph unicode="T" horiz-adv-x="945" d="M108 1151l36 214h945l-36 -214h-347l-193 -1151h-251l193 1151h-347z" />
<glyph unicode="U" horiz-adv-x="1239" d="M129 382q0 79 19 193l132 790h252l-135 -803q-22 -130 -22 -174q0 -110 71 -159t164 -49q81 0 143.5 32t97 98t62.5 233l137 822h196l-148 -882q-29 -174 -73.5 -269t-163 -170t-283.5 -75q-103 0 -200.5 34t-173 127.5t-75.5 251.5z" />
<glyph unicode="V" horiz-adv-x="1113" d="M131 1365h257l173 -1079l473 1079h218l-619 -1365h-273z" />
<glyph unicode="W" horiz-adv-x="1782" d="M148 1365h264l91 -1031l419 1031h243l109 -1031l415 1031h216l-573 -1375h-246l-120 1028l-421 -1028h-237z" />
<glyph unicode="X" horiz-adv-x="1131" d="M-85 0l548 709l-285 656h271l191 -456l342 456h245l-496 -636l315 -729h-269l-218 522l-394 -522h-250z" />
<glyph unicode="Y" horiz-adv-x="1061" d="M85 1365h281l242 -590l388 590h236l-545 -802l-94 -563h-257l96 575z" />
<glyph unicode="Z" horiz-adv-x="1077" d="M-44 0l34 201l822 950h-643l36 214h957l-26 -171l-851 -980h709l-36 -214h-1002z" />
<glyph unicode="[" horiz-adv-x="601" d="M-6 -355l288 1720h385l-19 -112h-217l-250 -1496h217l-19 -112h-385z" />
<glyph unicode="\" horiz-adv-x="890" d="M205 1365h139l486 -1720h-135z" />
<glyph unicode="]" horiz-adv-x="601" d="M-67 -355l19 112h218l251 1496h-219l19 112h385l-288 -1720h-385z" />
<glyph unicode="^" horiz-adv-x="1024" d="M51 703l338 669h305l338 -669h-244l-247 484l-246 -484h-244z" />
<glyph unicode="_" horiz-adv-x="1024" d="M29 -107h1024v-208h-1024v208z" />
<glyph unicode="`" horiz-adv-x="1024" d="M360 1357l79 130l343 -219l-49 -107z" />
<glyph unicode="a" horiz-adv-x="1097" d="M33 267q0 171 152.5 272t477.5 101q42 0 98 -4q7 46 7 73q0 82 -56.5 124t-140.5 42q-161 0 -235 -141l-200 63q126 248 445 248q190 0 300 -86t110 -229q0 -61 -48 -322q-51 -275 -51 -349q0 -27 4 -59h-221q-2 27 -2 44q0 73 18 175q-50 -114 -144 -179.5t-207 -65.5 q-136 0 -221.5 84.5t-85.5 208.5zM276 289q0 -61 41 -99.5t112 -38.5q102 0 189 89.5t123 278.5q-261 -14 -363 -69t-102 -161z" />
<glyph unicode="b" horiz-adv-x="1085" d="M52 0l228 1365h224l-87 -522q130 214 309 214q137 0 218.5 -115t81.5 -297q0 -237 -126.5 -450.5t-349.5 -213.5q-209 0 -299 192l-96 -173h-103zM349 382q0 -99 58 -155.5t131 -56.5q123 0 192 154t69 314q0 230 -161 230q-126 0 -207.5 -157t-81.5 -329z" />
<glyph unicode="c" horiz-adv-x="979" d="M71 437q0 246 139 428t349 182q159 0 265.5 -92.5t133.5 -262.5l-190 -37q-40 200 -199 200q-118 0 -192 -134t-74 -309q0 -133 56 -188.5t133 -55.5q150 0 228 201l188 -67q-144 -324 -432 -324q-179 0 -292 120.5t-113 338.5z" />
<glyph unicode="d" horiz-adv-x="1096" d="M65 394q0 270 127 463.5t323 193.5q210 0 277 -202l87 516h224l-229 -1365h-218l35 210q-123 -233 -322 -233q-137 0 -220.5 109.5t-83.5 307.5zM294 378q0 -218 166 -218q130 0 207 145.5t77 318.5q0 107 -51.5 173t-136.5 66q-130 0 -196 -150.5t-66 -334.5z" />
<glyph unicode="e" horiz-adv-x="1068" d="M69 425q0 260 144.5 439t371.5 179q204 0 308.5 -129t104.5 -352q0 -37 -3 -80h-699q-7 -43 -7 -76q0 -115 55.5 -185t157.5 -70q158 0 240 189l200 -53q-140 -312 -444 -312q-200 0 -314.5 123t-114.5 327zM320 627h466q0 258 -200 258q-207 0 -266 -258z" />
<glyph unicode="f" horiz-adv-x="645" d="M83 0l139 831h-139l31 186h139q40 210 140.5 303t277.5 93q92 0 143 -13l-20 -187q-48 12 -103 12q-193 0 -211 -208h219l-32 -186h-221l-139 -831h-224z" />
<glyph unicode="g" horiz-adv-x="1039" d="M-28 -124q0 82 42 129.5t120 90.5q-86 59 -86 157q0 75 39.5 131.5t160.5 116.5q-115 83 -115 209q0 156 120.5 244t333.5 88q75 0 126 -15q49 149 119 201t180 52q30 0 68 -5l-2 -174q-54 5 -75 5q-54 0 -107 -18t-82 -98q156 -78 156 -242q0 -143 -112 -236t-320 -93 q-88 0 -198 29q-91 -46 -91 -124q0 -43 32 -67.5t131 -24.5h121q177 0 259.5 -29.5t129 -94t46.5 -138.5q0 -126 -121.5 -229.5t-425.5 -103.5q-449 0 -449 239zM169 -62q0 -67 74 -110.5t222 -43.5q287 0 287 154q0 60 -45 74.5t-229 14.5q-192 0 -243 18q-66 -54 -66 -107 zM367 707q0 -154 170 -154q97 0 151 52.5t54 141.5q0 151 -165 151q-98 0 -154 -52.5t-56 -138.5z" />
<glyph unicode="h" horiz-adv-x="1102" d="M52 0l228 1365h224l-87 -525q126 207 311 207q115 0 195 -66t80 -208q0 -41 -22 -172l-100 -601h-224l100 601q18 105 18 129q0 134 -130 134q-89 0 -169.5 -75t-115.5 -288l-84 -501h-224z" />
<glyph unicode="i" horiz-adv-x="508" d="M52 0l170 1017h235l-170 -1017h-235zM242 1135l41 244h235l-41 -244h-235z" />
<glyph unicode="j" horiz-adv-x="508" d="M-273 -372l13 192q60 -13 111 -13q112 0 149 52t61 193l161 965h235l-155 -927q-31 -187 -68.5 -275.5t-127 -143.5t-225.5 -55q-82 0 -154 12zM242 1139l41 240h235l-41 -240h-235z" />
<glyph unicode="k" horiz-adv-x="1110" d="M52 0l228 1365h224l-137 -823l512 475h239l-345 -321l239 -696h-242l-177 542l-268 -248l-49 -294h-224z" />
<glyph unicode="l" horiz-adv-x="508" d="M52 0l228 1365h235l-228 -1365h-235z" />
<glyph unicode="m" horiz-adv-x="1746" d="M52 0l170 1017h224l-38 -227q45 118 136 188.5t193 70.5q234 0 266 -240q146 240 360 240q121 0 201.5 -76t80.5 -197q0 -60 -23 -199l-97 -577h-235l103 615q13 75 13 106q0 135 -143 135q-223 0 -293 -410l-76 -446h-223l99 592q17 102 17 141q0 126 -125 126 q-99 0 -184.5 -94.5t-138.5 -413.5l-59 -351h-228z" />
<glyph unicode="n" horiz-adv-x="1100" d="M52 0l170 1017h208l-40 -237q95 178 176 221.5t158 43.5q111 0 192.5 -75.5t81.5 -210.5q0 -53 -20 -169l-99 -590h-224l104 611q11 69 11 118q0 56 -31.5 94.5t-95.5 38.5q-102 0 -180 -103.5t-110 -300.5l-77 -458h-224z" />
<glyph unicode="o" horiz-adv-x="1075" d="M71 441q0 243 143 420.5t374 177.5q190 0 304 -127.5t114 -342.5q0 -221 -136 -408t-364 -187q-113 0 -218.5 50t-161 158.5t-55.5 258.5zM301 404q0 -127 60 -187t147 -60q136 0 200 140.5t64 294.5q0 264 -204 264q-143 0 -205 -151t-62 -301z" />
<glyph unicode="p" horiz-adv-x="1082" d="M-8 -355l230 1372h200l-35 -210q126 244 316 244q143 0 232 -116t89 -313q0 -245 -120.5 -448t-314.5 -203q-209 0 -284 209l-89 -535h-224zM347 408q0 -127 58.5 -190.5t141.5 -63.5q117 0 180.5 147.5t63.5 303.5q0 263 -160 263q-121 0 -202.5 -143.5t-81.5 -316.5z " />
<glyph unicode="q" horiz-adv-x="1085" d="M66 388q0 276 139.5 466.5t331.5 190.5q190 0 301 -184l87 156h115q-25 -113 -40 -202l-195 -1170h-224l88 531q-117 -205 -293 -205q-149 0 -229.5 110.5t-80.5 306.5zM294 372q0 -219 158 -219q130 0 207 160.5t77 320.5q0 75 -16.5 117.5t-59 73.5t-104.5 31 q-129 0 -195.5 -156t-66.5 -328z" />
<glyph unicode="r" horiz-adv-x="711" d="M52 0l170 1017h206l-46 -277q131 305 352 305q9 0 27 -1l-29 -250q-33 2 -50 2q-83 0 -156.5 -44t-115 -118.5t-69.5 -244.5l-65 -389h-224z" />
<glyph unicode="s" horiz-adv-x="938" d="M-37 247l214 52q59 -152 241 -152q91 0 143.5 37.5t52.5 95.5q0 43 -35.5 68t-120.5 49q-137 38 -203 70t-111 98t-45 151q0 133 101 231.5t285 98.5q299 0 420 -240l-193 -62q-67 133 -221 133q-69 0 -117 -32t-48 -86q0 -38 23.5 -63t94.5 -45q162 -48 240.5 -83.5 t124 -101t45.5 -150.5q0 -144 -110.5 -241t-327.5 -97q-347 0 -453 269z" />
<glyph unicode="t" horiz-adv-x="657" d="M62 834l31 183h153l61 274l204 14l-48 -288h219l-30 -183h-220l-76 -453q-14 -84 -14 -108q0 -97 144 -97q30 0 73 7l-31 -185q-101 -15 -143 -15q-141 0 -206.5 63.5t-65.5 154.5q0 47 23 183l77 450h-151z" />
<glyph unicode="u" horiz-adv-x="1083" d="M98 229q0 49 26 202l98 586h224l-106 -631q-14 -87 -14 -107q0 -49 31 -78t81 -29q69 0 141 57t102 133.5t55 224.5l72 430h224l-170 -1017h-208l37 222q-129 -241 -345 -241q-120 0 -184 77t-64 171z" />
<glyph unicode="v" horiz-adv-x="915" d="M79 1017h245l135 -712l331 712h198l-484 -1017h-209z" />
<glyph unicode="w" horiz-adv-x="1432" d="M92 1017h231l92 -703l294 703h202l74 -701l314 701h198l-466 -1017h-210l-77 723l-294 -723h-206z" />
<glyph unicode="x" horiz-adv-x="936" d="M-96 0l443 539l-239 478h259l141 -314l245 314h220l-377 -458l274 -559h-256l-181 390l-307 -390h-222z" />
<glyph unicode="y" horiz-adv-x="933" d="M-57 -361l10 194q58 -9 134 -9q71 0 117.5 29.5t84.5 110.5l38 81l-249 972h240l154 -700l336 700h196l-522 -1053q-73 -146 -112 -202t-113.5 -94t-192.5 -38q-56 0 -121 9z" />
<glyph unicode="z" horiz-adv-x="863" d="M-34 0l28 183l571 658h-432l29 176h722l-26 -158l-583 -676h486l-30 -183h-765z" />
<glyph unicode="{" horiz-adv-x="601" d="M32 458l18 106q119 23 143 168l60 358q25 148 106.5 212t238.5 64q28 0 83 -2l-19 -114q-125 0 -167 -32t-58 -129l-59 -348q-30 -180 -163 -237q92 -51 92 -166q0 -23 -8 -73l-57 -339q-8 -49 -8 -74q0 -43 29.5 -67.5t149.5 -24.5l-19 -114l-90 -1q-130 0 -191.5 46.5 t-61.5 160.5q0 31 9 83l57 342q7 41 7 62q0 97 -92 119z" />
<glyph unicode="|" horiz-adv-x="1024" d="M425 -341v1706h232v-1706h-232z" />
<glyph unicode="}" horiz-adv-x="601" d="M-81 -353l19 113q125 0 167 32t59 130l58 348q30 179 164 236q-93 51 -93 166q0 23 8 73l57 339q8 49 8 74q0 45 -30.5 69t-148.5 24l19 113l90 2q137 0 195 -51t58 -155q0 -32 -8 -85l-58 -342q-7 -40 -7 -61q0 -98 92 -119l-17 -106q-120 -24 -144 -169l-60 -357 q-25 -149 -106.5 -212.5t-238.5 -63.5q-28 0 -83 2z" />
<glyph unicode="~" d="M134 577q64 156 134.5 213.5t166.5 57.5q71 0 218 -58q134 -53 183 -53q96 0 158 115l133 -78q-113 -261 -319 -261q-57 0 -246 72q-101 39 -143 39q-94 0 -156 -131z" />
<glyph unicode="&#xa1;" horiz-adv-x="505" d="M460 1011l-42 -253h-246l42 253h246zM333 631l-34 -985h-290l220 985h104z" />
<glyph unicode="&#xa2;" d="M241 625q0 221 117.5 371t306.5 162l43 258h114l-45 -268q225 -47 278 -296l-177 -36q-15 153 -128 173l-103 -617q128 1 208 172l138 -65q-119 -258 -372 -260l-54 -324h-113l56 338q-269 72 -269 392zM442 609q0 -166 99 -216l101 600q-103 -16 -151.5 -132.5 t-48.5 -251.5z" />
<glyph unicode="&#xa3;" d="M-90 0l38 230q152 4 212 35t92 76t52 95t22 210h-163l30 177h139q-1 31 -1 48q0 263 141 406t348 143q258 0 350 -252l-207 -90q-39 153 -168 153q-64 0 -114.5 -39t-74 -101.5t-23.5 -232.5v-35h259l-29 -177h-241q-23 -300 -219 -418h269q171 0 247.5 45.5t112.5 151.5 l197 -110q-73 -164 -205.5 -239.5t-340.5 -75.5h-723z" />
<glyph unicode="&#xa4;" horiz-adv-x="1502" d="M171 1254l127 127l208 -207q134 94 294 94q147 0 280 -92l205 204l127 -126l-205 -205q97 -141 97 -287q0 -149 -94 -282l207 -207l-125 -127l-207 206q-136 -96 -291 -96q-147 0 -289 95l-206 -204l-125 126l205 205q-94 133 -94 284q0 153 94 284zM497 762 q0 -123 87.5 -211t209.5 -88t210 87.5t88 211.5q0 123 -87.5 211t-210.5 88q-122 0 -209.5 -88t-87.5 -211z" />
<glyph unicode="&#xa5;" d="M111 419l21 123h386l5 33l-68 169h-290l21 123h218l-203 498h254l231 -590l381 590h214l-327 -498h244l-21 -123h-303l-119 -181l-4 -21h392l-20 -123h-392l-70 -419h-234l70 419h-386z" />
<glyph unicode="&#xa6;" horiz-adv-x="1024" d="M425 314h232v-655h-232v655zM425 664v701h232v-701h-232z" />
<glyph unicode="&#xa7;" d="M16 -71l227 39q69 -166 281 -166q99 0 157 48t58 112q0 58 -44.5 97.5t-154.5 83.5q-170 68 -226 99.5t-93.5 93.5t-37.5 145q0 211 218 337q-92 63 -92 197q0 158 125.5 261t312.5 103q122 0 234 -54.5t180 -188.5l-189 -57q-67 143 -240 143q-84 0 -145.5 -40.5 t-61.5 -100.5q0 -44 30 -71t135 -69q196 -80 255.5 -120.5t90 -99t30.5 -134.5q0 -193 -188 -327q106 -73 106 -224q0 -170 -128 -287.5t-349 -117.5q-362 0 -491 298zM394 577q0 -43 35 -85t184 -106q61 -25 128 -56q119 92 119 178q0 58 -51 98.5t-194 97.5q-53 21 -94 42 q-127 -86 -127 -169z" />
<glyph unicode="&#xa8;" horiz-adv-x="1024" d="M365 1295q0 44 31 77.5t80 33.5q46 0 80 -29.5t34 -80.5q0 -50 -33.5 -79t-80.5 -29q-48 0 -79.5 31.5t-31.5 75.5zM699 1295q0 44 31.5 77.5t80.5 33.5q45 0 79.5 -29.5t34.5 -80.5q0 -50 -33.5 -79t-80.5 -29q-49 0 -80.5 32t-31.5 75z" />
<glyph unicode="&#xa9;" horiz-adv-x="1584" d="M112 683q0 293 208.5 502t504.5 209q291 0 498 -209t207 -503q0 -292 -208 -501.5t-499 -209.5q-293 0 -502 209.5t-209 502.5zM239 683q0 -248 171.5 -423t411.5 -175q238 0 409.5 175t171.5 423q0 245 -170.5 421t-408.5 176q-243 0 -414 -175.5t-171 -421.5zM460 618 q0 202 112 348.5t292 146.5q142 0 224.5 -79t93.5 -215l-159 -27q-18 187 -163 187q-67 0 -113.5 -48t-75 -154.5t-28.5 -192.5q0 -93 42 -143t112 -50q122 0 190 170l143 -57q-109 -252 -347 -252q-144 0 -233.5 98t-89.5 268z" />
<glyph unicode="&#xaa;" horiz-adv-x="721" d="M130 935q0 106 99 166.5t291 60.5q21 0 60 -1q4 19 4 33q0 93 -114 93q-93 0 -138 -86l-143 43q84 157 289 157q121 0 193 -53t72 -140q0 -37 -28 -190q-29 -159 -29 -203q0 -18 3 -44h-159q-2 12 -2 22q0 7 2 38q0 8 1 25q-72 -100 -200 -100q-96 0 -148.5 55.5 t-52.5 123.5zM302 949q0 -75 86 -75q59 0 108 50t70 152q-157 -10 -210.5 -39.5t-53.5 -87.5z" />
<glyph unicode="&#xab;" horiz-adv-x="675" d="M76 512l202 285h105l-153 -291l57 -282h-87zM325 516l203 281h106l-154 -287l58 -286h-89z" />
<glyph unicode="&#xac;" d="M187 338v208h887v-546h-232v338h-655z" />
<glyph unicode="&#xad;" horiz-adv-x="493" d="M-14 414l31 183h490l-31 -183h-490z" />
<glyph unicode="&#xae;" horiz-adv-x="1584" d="M112 683q0 293 208.5 502t504.5 209q291 0 498 -209t207 -503q0 -292 -208 -501.5t-499 -209.5q-293 0 -502 209.5t-209 502.5zM239 683q0 -248 171.5 -423t411.5 -175q238 0 409.5 175t171.5 423q0 245 -170.5 421t-408.5 176q-243 0 -414 -175.5t-171 -421.5zM486 273 l137 819h296q90 0 142 -18.5t91 -77t39 -130.5q0 -77 -45 -149.5t-136 -93.5l90 -350h-165l-78 330h-160l-55 -330h-156zM719 735h178q133 0 133 119q0 59 -33 83t-101 24h-139z" />
<glyph unicode="&#xaf;" horiz-adv-x="1024" d="M29 1602v209h1024v-209h-1024z" />
<glyph unicode="&#xb0;" d="M430 1120q0 107 77 190t196 83q116 0 194.5 -81t78.5 -192q0 -112 -79.5 -192.5t-193.5 -80.5q-116 0 -194.5 82t-78.5 191zM568 1120q0 -53 38.5 -94.5t97.5 -41.5q56 0 96 40t40 96q0 55 -39 95.5t-97 40.5t-97 -41t-39 -95z" />
<glyph unicode="&#xb1;" d="M84 -89v191h1012v-191h-1012zM84 594v191h411v426h190v-426h411v-191h-411v-425h-190v425h-411z" />
<glyph unicode="&#xb2;" horiz-adv-x="792" d="M72 546l21 159q126 64 278 157.5t204.5 152t52.5 120.5q0 51 -38 85.5t-98 34.5q-142 0 -185 -172l-149 59q97 252 343 252q115 0 207.5 -69t92.5 -190q0 -145 -139.5 -244.5t-377.5 -201.5h473l-24 -143h-661z" />
<glyph unicode="&#xb3;" horiz-adv-x="792" d="M86 758l153 37q11 -62 62 -100t121 -38q77 0 123 37t46 94q0 45 -26.5 74.5t-61.5 34.5t-162 5l22 128q26 -1 45 -1q220 0 220 121q0 47 -40 75t-97 28q-127 0 -186 -119l-146 61q118 190 337 190q133 0 217.5 -64.5t84.5 -157.5q0 -139 -170 -192q134 -48 134 -187 q0 -102 -89 -179.5t-253 -77.5q-265 0 -334 231z" />
<glyph unicode="&#xb4;" horiz-adv-x="1024" d="M461 1268l393 219l66 -136l-417 -190z" />
<glyph unicode="&#xb5;" d="M34 -355l230 1372h224l-92 -548q-15 -90 -15 -136q0 -76 43 -126.5t113 -50.5q80 0 152 58.5t105 254.5l92 548h224l-171 -1017h-188l27 158q-108 -185 -261 -185q-136 0 -178 154l-81 -482h-224z" />
<glyph unicode="&#xb6;" d="M182 970q0 137 69 233t164.5 129t291.5 33h551l-19 -114h-136l-266 -1586h-114l265 1586h-112l-265 -1586h-118l174 1038h-76q-170 0 -243.5 20.5t-119.5 84t-46 162.5zM378 1002q0 -104 49 -144t178 -40h81l72 433h-58q-160 0 -211 -27t-81 -93.5t-30 -128.5z" />
<glyph unicode="&#xb7;" horiz-adv-x="281" d="M0 380l42 251h239l-42 -251h-239z" />
<glyph unicode="&#xb8;" horiz-adv-x="1024" d="M245 -343l46 78q76 -46 139 -46q85 0 85 66q0 74 -166 74l83 171h82l-42 -93q72 0 123.5 -36t51.5 -98q0 -65 -62.5 -120.5t-152.5 -55.5q-66 0 -187 60z" />
<glyph unicode="&#xb9;" horiz-adv-x="792" d="M116 546l23 139h227l82 490q-116 -68 -238 -68q-10 0 -27 1l22 136q237 18 329 151h113l-119 -710h230l-23 -139h-619z" />
<glyph unicode="&#xba;" horiz-adv-x="707" d="M153 1045q0 146 91.5 251t237.5 105q125 0 198.5 -79.5t73.5 -198.5q0 -148 -89 -256t-231 -108q-115 0 -198 67.5t-83 218.5zM318 1022q0 -141 119 -141q76 0 113 78.5t37 176.5q0 143 -118 143q-82 0 -116.5 -87.5t-34.5 -169.5z" />
<glyph unicode="&#xbb;" horiz-adv-x="674" d="M41 224l155 287l-59 286h89l124 -292l-202 -281h-107zM292 224l154 291l-58 282h88l123 -288l-202 -285h-105z" />
<glyph unicode="&#xbc;" horiz-adv-x="1802" d="M77 546l23 139h227l82 490q-116 -68 -238 -68q-10 0 -27 1l22 136q237 18 329 151h113l-119 -710h230l-23 -139h-619zM321 0l1069 1365h150l-1066 -1365h-153zM1056 183l23 138l463 526h170l-89 -529h135l-22 -135h-135l-31 -183h-164l31 183h-381zM1216 305l255 2 l59 352z" />
<glyph unicode="&#xbd;" horiz-adv-x="1802" d="M77 546l23 139h227l82 490q-116 -68 -238 -68q-10 0 -27 1l22 136q237 18 329 151h113l-119 -710h230l-23 -139h-619zM321 0l1069 1365h150l-1066 -1365h-153zM1030 0l21 159q106 53 263 148t214.5 155.5t57.5 125.5q0 53 -38.5 87t-96.5 34q-143 0 -186 -172l-149 59 q99 252 343 252q123 0 212 -72t89 -187q0 -146 -141 -245.5t-377 -200.5h473l-24 -143h-661z" />
<glyph unicode="&#xbe;" horiz-adv-x="1802" d="M47 758l153 37q11 -62 62 -100t121 -38q77 0 123 37t46 94q0 45 -26.5 74.5t-61.5 34.5t-162 5l22 128q26 -1 45 -1q220 0 220 121q0 47 -40 75t-97 28q-127 0 -186 -119l-146 61q118 190 337 190q133 0 217.5 -64.5t84.5 -157.5q0 -139 -170 -192q134 -48 134 -187 q0 -102 -89 -179.5t-253 -77.5q-265 0 -334 231zM321 0l1068 1365h151l-1067 -1365h-152zM1056 183l23 138l463 526h169l-88 -529h135l-23 -135h-135l-30 -183h-164l31 183h-381zM1216 305l255 2l59 352z" />
<glyph unicode="&#xbf;" horiz-adv-x="992" d="M-21 -8q0 94 53 198t233 194q111 57 139.5 109t32.5 136h189q-25 -190 -62 -246t-170 -144q-174 -115 -174 -243q0 -78 53.5 -129t133.5 -51q95 0 164 68.5t97 182.5l203 -79q-64 -176 -191 -275.5t-288 -99.5q-185 0 -299 108.5t-114 270.5zM421 756l43 254h245 l-42 -254h-246z" />
<glyph unicode="&#xc0;" horiz-adv-x="1234" d="M-57 0l654 1365h303l250 -1365h-273l-56 330h-495l-152 -330h-231zM410 520h388l-107 606zM462 1670l79 130l343 -219l-49 -107z" />
<glyph unicode="&#xc1;" horiz-adv-x="1234" d="M-57 0l654 1365h303l250 -1365h-273l-56 330h-495l-152 -330h-231zM410 520h388l-107 606zM649 1581l393 219l66 -136l-417 -190z" />
<glyph unicode="&#xc2;" horiz-adv-x="1234" d="M-57 0l654 1365h303l250 -1365h-273l-56 330h-495l-152 -330h-231zM410 520h388l-107 606zM418 1502l403 288l286 -288l-178 -21l-131 132l-203 -132z" />
<glyph unicode="&#xc3;" horiz-adv-x="1234" d="M-57 0l654 1365h303l250 -1365h-273l-56 330h-495l-152 -330h-231zM410 520h388l-107 606zM466 1616q114 122 218 122q56 0 130 -39q81 -42 122 -42q63 0 130 74l52 -99q-88 -117 -211 -117q-61 0 -148 47q-69 38 -101 38q-47 0 -140 -80z" />
<glyph unicode="&#xc4;" horiz-adv-x="1234" d="M-57 0l654 1365h303l250 -1365h-273l-56 330h-495l-152 -330h-231zM410 520h388l-107 606zM499 1619q0 44 31 77.5t80 33.5q46 0 80 -29.5t34 -80.5q0 -50 -33.5 -79t-80.5 -29q-48 0 -79.5 31.5t-31.5 75.5zM833 1619q0 44 31.5 77.5t80.5 33.5q45 0 79.5 -29.5 t34.5 -80.5q0 -50 -33.5 -79t-80.5 -29q-49 0 -80.5 32t-31.5 75z" />
<glyph unicode="&#xc5;" horiz-adv-x="1234" d="M-57 0l654 1365h303l250 -1365h-273l-56 330h-495l-152 -330h-231zM410 520h388l-107 606zM593 1639q0 77 54.5 132t130.5 55q69 0 127.5 -49t58.5 -141q0 -72 -53.5 -127t-132.5 -55q-77 0 -131 54t-54 131zM697 1640q0 -33 21 -57.5t61 -24.5q42 0 62 25.5t20 52.5 q0 38 -21.5 62t-56.5 24q-34 0 -60 -21t-26 -61z" />
<glyph unicode="&#xc6;" horiz-adv-x="1717" d="M-119 0l895 1365h998l-35 -214h-637l-59 -355h530l-34 -201h-530l-63 -381h661l-36 -214h-906l59 351h-390l-224 -351h-229zM455 537h300l105 626z" />
<glyph unicode="&#xc7;" horiz-adv-x="1211" d="M103 561q0 345 179 592.5t460 247.5q219 0 347 -127t146 -352l-222 -40q-30 314 -276 314q-199 0 -286.5 -236t-87.5 -449q0 -166 73.5 -250t187.5 -84q105 0 190.5 81.5t130.5 198.5l200 -83q-177 -416 -559 -409l-32 -65q205 0 205 -136q0 -76 -65.5 -136t-169.5 -60 q-95 0 -216 61l47 82q107 -51 157 -51q47 0 76.5 24.5t29.5 59.5q0 77 -137 77q-16 0 -57 -2l75 155q-192 40 -294 202t-102 385z" />
<glyph unicode="&#xc8;" horiz-adv-x="1099" d="M65 0l228 1365h863l-36 -214h-618l-59 -354h512l-34 -202h-512l-64 -381h643l-36 -214h-887zM475 1670l79 130l343 -219l-49 -107z" />
<glyph unicode="&#xc9;" horiz-adv-x="1099" d="M65 0l228 1365h863l-36 -214h-618l-59 -354h512l-34 -202h-512l-64 -381h643l-36 -214h-887zM628 1581l393 219l66 -136l-417 -190z" />
<glyph unicode="&#xca;" horiz-adv-x="1099" d="M65 0l228 1365h863l-36 -214h-618l-59 -354h512l-34 -202h-512l-64 -381h643l-36 -214h-887zM406 1502l403 288l286 -288l-178 -21l-131 132l-203 -132z" />
<glyph unicode="&#xcb;" horiz-adv-x="1099" d="M65 0l228 1365h863l-36 -214h-618l-59 -354h512l-34 -202h-512l-64 -381h643l-36 -214h-887zM478 1619q0 44 31 77.5t80 33.5q46 0 80 -29.5t34 -80.5q0 -50 -33.5 -79t-80.5 -29q-48 0 -79.5 31.5t-31.5 75.5zM812 1619q0 44 31.5 77.5t80.5 33.5q45 0 79.5 -29.5 t34.5 -80.5q0 -50 -33.5 -79t-80.5 -29q-49 0 -80.5 32t-31.5 75z" />
<glyph unicode="&#xcc;" horiz-adv-x="553" d="M65 0l228 1365h253l-228 -1365h-253zM143 1670l79 130l343 -219l-49 -107z" />
<glyph unicode="&#xcd;" horiz-adv-x="553" d="M65 0l228 1365h253l-228 -1365h-253zM316 1581l393 219l66 -136l-417 -190z" />
<glyph unicode="&#xce;" horiz-adv-x="553" d="M65 0l228 1365h253l-228 -1365h-253zM97 1502l403 288l286 -288l-178 -21l-131 132l-203 -132z" />
<glyph unicode="&#xcf;" horiz-adv-x="553" d="M65 0l228 1365h253l-228 -1365h-253zM210 1619q0 44 31 77.5t80 33.5q46 0 80 -29.5t34 -80.5q0 -50 -33.5 -79t-80.5 -29q-48 0 -79.5 31.5t-31.5 75.5zM544 1619q0 44 31.5 77.5t80.5 33.5q45 0 79.5 -29.5t34.5 -80.5q0 -50 -33.5 -79t-80.5 -29q-49 0 -80.5 32 t-31.5 75z" />
<glyph unicode="&#xd0;" horiz-adv-x="1310" d="M31 601l32 191h137l95 573h400q139 0 224.5 -25t164 -97t128 -197t49.5 -288q0 -191 -72.5 -358t-174.5 -256.5t-198.5 -116.5t-277.5 -27h-471l101 601h-137zM351 206h217q109 0 174.5 28.5t125.5 98t97 198.5t37 265q0 112 -37.5 201.5t-110 127.5t-195.5 38h-147 l-62 -371h320l-32 -191h-321z" />
<glyph unicode="&#xd1;" horiz-adv-x="1330" d="M65 0l228 1365h253l425 -937l157 937h195l-229 -1365h-195l-466 1026l-171 -1026h-197zM545 1616q114 122 218 122q56 0 130 -39q81 -42 122 -42q63 0 130 74l52 -99q-88 -117 -211 -117q-61 0 -148 47q-69 38 -101 38q-47 0 -140 -80z" />
<glyph unicode="&#xd2;" horiz-adv-x="1324" d="M104 581q0 314 176 568.5t471 254.5q246 0 387.5 -165t141.5 -453q0 -322 -179 -572.5t-476 -250.5q-217 0 -369 169.5t-152 448.5zM363 538q0 -200 79 -285t192 -85q198 0 291 219t93 454q0 358 -282 358q-188 0 -280.5 -225.5t-92.5 -435.5zM576 1670l79 130l343 -219 l-49 -107z" />
<glyph unicode="&#xd3;" horiz-adv-x="1324" d="M104 581q0 314 176 568.5t471 254.5q246 0 387.5 -165t141.5 -453q0 -322 -179 -572.5t-476 -250.5q-217 0 -369 169.5t-152 448.5zM363 538q0 -200 79 -285t192 -85q198 0 291 219t93 454q0 358 -282 358q-188 0 -280.5 -225.5t-92.5 -435.5zM701 1581l393 219l66 -136 l-417 -190z" />
<glyph unicode="&#xd4;" horiz-adv-x="1324" d="M104 581q0 314 176 568.5t471 254.5q246 0 387.5 -165t141.5 -453q0 -322 -179 -572.5t-476 -250.5q-217 0 -369 169.5t-152 448.5zM363 538q0 -200 79 -285t192 -85q198 0 291 219t93 454q0 358 -282 358q-188 0 -280.5 -225.5t-92.5 -435.5zM477 1502l403 288l286 -288 l-178 -21l-131 132l-203 -132z" />
<glyph unicode="&#xd5;" horiz-adv-x="1324" d="M104 581q0 314 176 568.5t471 254.5q246 0 387.5 -165t141.5 -453q0 -322 -179 -572.5t-476 -250.5q-217 0 -369 169.5t-152 448.5zM363 538q0 -200 79 -285t192 -85q198 0 291 219t93 454q0 358 -282 358q-188 0 -280.5 -225.5t-92.5 -435.5zM529 1616q114 122 218 122 q56 0 130 -39q81 -42 122 -42q63 0 130 74l52 -99q-88 -117 -211 -117q-61 0 -148 47q-69 38 -101 38q-47 0 -140 -80z" />
<glyph unicode="&#xd6;" horiz-adv-x="1324" d="M104 581q0 314 176 568.5t471 254.5q246 0 387.5 -165t141.5 -453q0 -322 -179 -572.5t-476 -250.5q-217 0 -369 169.5t-152 448.5zM363 538q0 -200 79 -285t192 -85q198 0 291 219t93 454q0 358 -282 358q-188 0 -280.5 -225.5t-92.5 -435.5zM563 1619q0 44 31 77.5 t80 33.5q46 0 80 -29.5t34 -80.5q0 -50 -33.5 -79t-80.5 -29q-48 0 -79.5 31.5t-31.5 75.5zM897 1619q0 44 31.5 77.5t80.5 33.5q45 0 79.5 -29.5t34.5 -80.5q0 -50 -33.5 -79t-80.5 -29q-49 0 -80.5 32t-31.5 75z" />
<glyph unicode="&#xd7;" d="M196 389l301 301l-301 301l134 135l302 -301l301 301l135 -136l-301 -301l300 -300l-134 -134l-301 300l-301 -301z" />
<glyph unicode="&#xd8;" horiz-adv-x="1324" d="M-22 -31l211 252q-85 160 -85 359q0 310 177 567t469 257q210 0 346 -122l101 109h198l-198 -233q84 -167 84 -364q0 -339 -182 -585t-469 -246q-187 0 -340 131l-115 -125h-197zM363 507q0 -34 8 -88l570 698q-77 82 -205 82q-185 0 -279 -226t-94 -466zM438 257 q79 -89 202 -89q187 0 283 211t96 472q0 49 -11 107z" />
<glyph unicode="&#xd9;" horiz-adv-x="1239" d="M129 382q0 79 19 193l132 790h252l-135 -803q-22 -130 -22 -174q0 -110 71 -159t164 -49q81 0 143.5 32t97 98t62.5 233l137 822h196l-148 -882q-29 -174 -73.5 -269t-163 -170t-283.5 -75q-103 0 -200.5 34t-173 127.5t-75.5 251.5zM532 1670l79 130l343 -219l-49 -107z " />
<glyph unicode="&#xda;" horiz-adv-x="1239" d="M129 382q0 79 19 193l132 790h252l-135 -803q-22 -130 -22 -174q0 -110 71 -159t164 -49q81 0 143.5 32t97 98t62.5 233l137 822h196l-148 -882q-29 -174 -73.5 -269t-163 -170t-283.5 -75q-103 0 -200.5 34t-173 127.5t-75.5 251.5zM676 1581l393 219l66 -136l-417 -190 z" />
<glyph unicode="&#xdb;" horiz-adv-x="1239" d="M129 382q0 79 19 193l132 790h252l-135 -803q-22 -130 -22 -174q0 -110 71 -159t164 -49q81 0 143.5 32t97 98t62.5 233l137 822h196l-148 -882q-29 -174 -73.5 -269t-163 -170t-283.5 -75q-103 0 -200.5 34t-173 127.5t-75.5 251.5zM452 1502l403 288l286 -288l-178 -21 l-131 132l-203 -132z" />
<glyph unicode="&#xdc;" horiz-adv-x="1239" d="M129 382q0 79 19 193l132 790h252l-135 -803q-22 -130 -22 -174q0 -110 71 -159t164 -49q81 0 143.5 32t97 98t62.5 233l137 822h196l-148 -882q-29 -174 -73.5 -269t-163 -170t-283.5 -75q-103 0 -200.5 34t-173 127.5t-75.5 251.5zM530 1619q0 44 31 77.5t80 33.5 q46 0 80 -29.5t34 -80.5q0 -50 -33.5 -79t-80.5 -29q-48 0 -79.5 31.5t-31.5 75.5zM864 1619q0 44 31.5 77.5t80.5 33.5q45 0 79.5 -29.5t34.5 -80.5q0 -50 -33.5 -79t-80.5 -29q-49 0 -80.5 32t-31.5 75z" />
<glyph unicode="&#xdd;" horiz-adv-x="1061" d="M85 1365h281l242 -590l388 590h236l-545 -802l-94 -563h-257l96 575zM575 1581l393 219l66 -136l-417 -190z" />
<glyph unicode="&#xde;" horiz-adv-x="1237" d="M65 0l228 1365h256l-32 -191h111q178 0 261 -7.5t161 -54.5t124.5 -133.5t46.5 -193.5q0 -139 -77 -248.5t-180.5 -145t-254.5 -35.5h-329l-60 -356h-255zM414 557h243q127 0 178 16.5t90 72t39 134.5q0 73 -35 120.5t-83 61t-172 13.5h-190z" />
<glyph unicode="&#xdf;" horiz-adv-x="1149" d="M59 -50l139 833h-114l31 184h114q34 268 176 398t341 130q172 0 274 -88t102 -211q0 -101 -78 -192.5t-317 -124.5q-42 -6 -42 -33q0 -21 20 -34t104 -51q173 -77 228 -170t55 -188q0 -166 -123 -297.5t-329 -131.5q-115 0 -238 50l61 166q95 -33 173 -33q103 0 168 50.5 t65 124.5q0 47 -30.5 91t-145.5 109q-121 67 -153.5 118.5t-32.5 106.5q0 64 33 126.5t69 85t131 49.5q150 42 150 162q0 63 -43.5 106.5t-118.5 43.5q-87 0 -155 -60t-109 -303l-170 -1017h-235z" />
<glyph unicode="&#xe0;" horiz-adv-x="1097" d="M33 267q0 171 152.5 272t477.5 101q42 0 98 -4q7 46 7 73q0 82 -56.5 124t-140.5 42q-161 0 -235 -141l-200 63q126 248 445 248q190 0 300 -86t110 -229q0 -61 -48 -322q-51 -275 -51 -349q0 -27 4 -59h-221q-2 27 -2 44q0 73 18 175q-50 -114 -144 -179.5t-207 -65.5 q-136 0 -221.5 84.5t-85.5 208.5zM276 289q0 -61 41 -99.5t112 -38.5q102 0 189 89.5t123 278.5q-261 -14 -363 -69t-102 -161zM360 1357l79 130l343 -219l-49 -107z" />
<glyph unicode="&#xe1;" horiz-adv-x="1097" d="M33 267q0 171 152.5 272t477.5 101q42 0 98 -4q7 46 7 73q0 82 -56.5 124t-140.5 42q-161 0 -235 -141l-200 63q126 248 445 248q190 0 300 -86t110 -229q0 -61 -48 -322q-51 -275 -51 -349q0 -27 4 -59h-221q-2 27 -2 44q0 73 18 175q-50 -114 -144 -179.5t-207 -65.5 q-136 0 -221.5 84.5t-85.5 208.5zM276 289q0 -61 41 -99.5t112 -38.5q102 0 189 89.5t123 278.5q-261 -14 -363 -69t-102 -161zM461 1268l393 219l66 -136l-417 -190z" />
<glyph unicode="&#xe2;" horiz-adv-x="1097" d="M33 267q0 171 152.5 272t477.5 101q42 0 98 -4q7 46 7 73q0 82 -56.5 124t-140.5 42q-161 0 -235 -141l-200 63q126 248 445 248q190 0 300 -86t110 -229q0 -61 -48 -322q-51 -275 -51 -349q0 -27 4 -59h-221q-2 27 -2 44q0 73 18 175q-50 -114 -144 -179.5t-207 -65.5 q-136 0 -221.5 84.5t-85.5 208.5zM276 289q0 -61 41 -99.5t112 -38.5q102 0 189 89.5t123 278.5q-261 -14 -363 -69t-102 -161zM298 1188l403 288l286 -288l-178 -21l-131 132l-203 -132z" />
<glyph unicode="&#xe3;" horiz-adv-x="1097" d="M33 267q0 171 152.5 272t477.5 101q42 0 98 -4q7 46 7 73q0 82 -56.5 124t-140.5 42q-161 0 -235 -141l-200 63q126 248 445 248q190 0 300 -86t110 -229q0 -61 -48 -322q-51 -275 -51 -349q0 -27 4 -59h-221q-2 27 -2 44q0 73 18 175q-50 -114 -144 -179.5t-207 -65.5 q-136 0 -221.5 84.5t-85.5 208.5zM276 289q0 -61 41 -99.5t112 -38.5q102 0 189 89.5t123 278.5q-261 -14 -363 -69t-102 -161zM341 1302q114 122 218 122q56 0 130 -39q81 -42 122 -42q63 0 130 74l52 -99q-88 -117 -211 -117q-61 0 -148 47q-69 38 -101 38q-47 0 -140 -80 z" />
<glyph unicode="&#xe4;" horiz-adv-x="1097" d="M33 267q0 171 152.5 272t477.5 101q42 0 98 -4q7 46 7 73q0 82 -56.5 124t-140.5 42q-161 0 -235 -141l-200 63q126 248 445 248q190 0 300 -86t110 -229q0 -61 -48 -322q-51 -275 -51 -349q0 -27 4 -59h-221q-2 27 -2 44q0 73 18 175q-50 -114 -144 -179.5t-207 -65.5 q-136 0 -221.5 84.5t-85.5 208.5zM276 289q0 -61 41 -99.5t112 -38.5q102 0 189 89.5t123 278.5q-261 -14 -363 -69t-102 -161zM389 1295q0 44 31 77.5t80 33.5q46 0 80 -29.5t34 -80.5q0 -50 -33.5 -79t-80.5 -29q-48 0 -79.5 31.5t-31.5 75.5zM723 1295q0 44 31.5 77.5 t80.5 33.5q45 0 79.5 -29.5t34.5 -80.5q0 -50 -33.5 -79t-80.5 -29q-49 0 -80.5 32t-31.5 75z" />
<glyph unicode="&#xe5;" horiz-adv-x="1097" d="M33 267q0 171 152.5 272t477.5 101q42 0 98 -4q7 46 7 73q0 82 -56.5 124t-140.5 42q-161 0 -235 -141l-200 63q126 248 445 248q190 0 300 -86t110 -229q0 -61 -48 -322q-51 -275 -51 -349q0 -27 4 -59h-221q-2 27 -2 44q0 73 18 175q-50 -114 -144 -179.5t-207 -65.5 q-136 0 -221.5 84.5t-85.5 208.5zM276 289q0 -61 41 -99.5t112 -38.5q102 0 189 89.5t123 278.5q-261 -14 -363 -69t-102 -161zM490 1318q0 77 54.5 132t130.5 55q69 0 127.5 -49t58.5 -141q0 -72 -53.5 -127t-132.5 -55q-77 0 -131 54t-54 131zM594 1319q0 -33 21 -57.5 t61 -24.5q42 0 62 25.5t20 52.5q0 38 -21.5 62t-56.5 24q-34 0 -60 -21t-26 -61z" />
<glyph unicode="&#xe6;" horiz-adv-x="1698" d="M33 268q0 371 630 371q41 0 94 -3q8 35 8 62q0 176 -199 176q-157 0 -230 -138l-198 63q133 243 441 243q224 0 325 -126q121 126 315 126q186 0 300 -123t114 -329q0 -48 -8 -109h-700q-8 -43 -8 -77q0 -116 57.5 -184t158.5 -68q158 0 238 185l199 -57 q-145 -305 -447 -305q-276 0 -375 241q-158 -242 -398 -242q-141 0 -229 82.5t-88 211.5zM271 290q0 -67 44 -103t112 -36q108 0 194 96t116 270q-243 -11 -354.5 -61t-111.5 -166zM953 625h467v23q0 91 -49 162t-158 71q-105 0 -174.5 -79.5t-85.5 -176.5z" />
<glyph unicode="&#xe7;" horiz-adv-x="979" d="M71 437q0 246 139 428t349 182q159 0 265.5 -92.5t133.5 -262.5l-190 -37q-40 200 -199 200q-118 0 -192 -134t-74 -309q0 -133 56 -188.5t133 -55.5q150 0 228 201l188 -67q-144 -324 -432 -324q-179 0 -292 120.5t-113 338.5zM206 -343l46 78q76 -46 139 -46 q85 0 85 66q0 74 -166 74l83 171h82l-42 -93q72 0 123.5 -36t51.5 -98q0 -65 -62.5 -120.5t-152.5 -55.5q-66 0 -187 60z" />
<glyph unicode="&#xe8;" horiz-adv-x="1068" d="M69 425q0 260 144.5 439t371.5 179q204 0 308.5 -129t104.5 -352q0 -37 -3 -80h-699q-7 -43 -7 -76q0 -115 55.5 -185t157.5 -70q158 0 240 189l200 -53q-140 -312 -444 -312q-200 0 -314.5 123t-114.5 327zM320 627h466q0 258 -200 258q-207 0 -266 -258zM360 1357 l79 130l343 -219l-49 -107z" />
<glyph unicode="&#xe9;" horiz-adv-x="1068" d="M69 425q0 260 144.5 439t371.5 179q204 0 308.5 -129t104.5 -352q0 -37 -3 -80h-699q-7 -43 -7 -76q0 -115 55.5 -185t157.5 -70q158 0 240 189l200 -53q-140 -312 -444 -312q-200 0 -314.5 123t-114.5 327zM320 627h466q0 258 -200 258q-207 0 -266 -258zM461 1268 l393 219l66 -136l-417 -190z" />
<glyph unicode="&#xea;" horiz-adv-x="1068" d="M69 425q0 260 144.5 439t371.5 179q204 0 308.5 -129t104.5 -352q0 -37 -3 -80h-699q-7 -43 -7 -76q0 -115 55.5 -185t157.5 -70q158 0 240 189l200 -53q-140 -312 -444 -312q-200 0 -314.5 123t-114.5 327zM320 627h466q0 258 -200 258q-207 0 -266 -258zM292 1188 l403 288l286 -288l-178 -21l-131 132l-203 -132z" />
<glyph unicode="&#xeb;" horiz-adv-x="1068" d="M69 425q0 260 144.5 439t371.5 179q204 0 308.5 -129t104.5 -352q0 -37 -3 -80h-699q-7 -43 -7 -76q0 -115 55.5 -185t157.5 -70q158 0 240 189l200 -53q-140 -312 -444 -312q-200 0 -314.5 123t-114.5 327zM320 627h466q0 258 -200 258q-207 0 -266 -258zM384 1295 q0 44 31 77.5t80 33.5q46 0 80 -29.5t34 -80.5q0 -50 -33.5 -79t-80.5 -29q-48 0 -79.5 31.5t-31.5 75.5zM718 1295q0 44 31.5 77.5t80.5 33.5q45 0 79.5 -29.5t34.5 -80.5q0 -50 -33.5 -79t-80.5 -29q-49 0 -80.5 32t-31.5 75z" />
<glyph unicode="&#xec;" horiz-adv-x="508" d="M52 0l170 1017h235l-170 -1017h-235zM95 1357l79 130l343 -219l-49 -107z" />
<glyph unicode="&#xed;" horiz-adv-x="508" d="M52 0l170 1017h235l-170 -1017h-235zM220 1268l393 219l66 -136l-417 -190z" />
<glyph unicode="&#xee;" horiz-adv-x="508" d="M52 0l170 1017h235l-170 -1017h-235zM52 1188l403 288l286 -288l-178 -21l-131 132l-203 -132z" />
<glyph unicode="&#xef;" horiz-adv-x="508" d="M52 0l170 1017h235l-170 -1017h-235zM136 1295q0 44 31 77.5t80 33.5q46 0 80 -29.5t34 -80.5q0 -50 -33.5 -79t-80.5 -29q-48 0 -79.5 31.5t-31.5 75.5zM470 1295q0 44 31.5 77.5t80.5 33.5q45 0 79.5 -29.5t34.5 -80.5q0 -50 -33.5 -79t-80.5 -29q-49 0 -80.5 32 t-31.5 75z" />
<glyph unicode="&#xf0;" horiz-adv-x="1075" d="M68 419q0 249 129.5 422.5t333.5 173.5q135 0 234 -84q-34 156 -113 246l-188 -84l-56 84l168 74q-61 58 -172 87l35 95q148 -32 281 -118l200 88l60 -79l-173 -76q205 -199 205 -586q0 -291 -135.5 -489t-385.5 -198q-177 0 -300 106t-123 338zM296 416q0 -258 204 -258 q137 0 201.5 138t64.5 297q0 107 -52.5 171.5t-150.5 64.5q-158 0 -212.5 -158.5t-54.5 -254.5z" />
<glyph unicode="&#xf1;" horiz-adv-x="1100" d="M52 0l170 1017h208l-40 -237q95 178 176 221.5t158 43.5q111 0 192.5 -75.5t81.5 -210.5q0 -53 -20 -169l-99 -590h-224l104 611q11 69 11 118q0 56 -31.5 94.5t-95.5 38.5q-102 0 -180 -103.5t-110 -300.5l-77 -458h-224zM345 1302q114 122 218 122q56 0 130 -39 q81 -42 122 -42q63 0 130 74l52 -99q-88 -117 -211 -117q-61 0 -148 47q-69 38 -101 38q-47 0 -140 -80z" />
<glyph unicode="&#xf2;" horiz-adv-x="1075" d="M71 441q0 243 143 420.5t374 177.5q190 0 304 -127.5t114 -342.5q0 -221 -136 -408t-364 -187q-113 0 -218.5 50t-161 158.5t-55.5 258.5zM301 404q0 -127 60 -187t147 -60q136 0 200 140.5t64 294.5q0 264 -204 264q-143 0 -205 -151t-62 -301zM389 1357l79 130 l343 -219l-49 -107z" />
<glyph unicode="&#xf3;" horiz-adv-x="1075" d="M71 441q0 243 143 420.5t374 177.5q190 0 304 -127.5t114 -342.5q0 -221 -136 -408t-364 -187q-113 0 -218.5 50t-161 158.5t-55.5 258.5zM301 404q0 -127 60 -187t147 -60q136 0 200 140.5t64 294.5q0 264 -204 264q-143 0 -205 -151t-62 -301zM507 1268l393 219 l66 -136l-417 -190z" />
<glyph unicode="&#xf4;" horiz-adv-x="1075" d="M71 441q0 243 143 420.5t374 177.5q190 0 304 -127.5t114 -342.5q0 -221 -136 -408t-364 -187q-113 0 -218.5 50t-161 158.5t-55.5 258.5zM301 404q0 -127 60 -187t147 -60q136 0 200 140.5t64 294.5q0 264 -204 264q-143 0 -205 -151t-62 -301zM300 1188l403 288 l286 -288l-178 -21l-131 132l-203 -132z" />
<glyph unicode="&#xf5;" horiz-adv-x="1075" d="M71 441q0 243 143 420.5t374 177.5q190 0 304 -127.5t114 -342.5q0 -221 -136 -408t-364 -187q-113 0 -218.5 50t-161 158.5t-55.5 258.5zM301 404q0 -127 60 -187t147 -60q136 0 200 140.5t64 294.5q0 264 -204 264q-143 0 -205 -151t-62 -301zM348 1302 q114 122 218 122q56 0 130 -39q81 -42 122 -42q63 0 130 74l52 -99q-88 -117 -211 -117q-61 0 -148 47q-69 38 -101 38q-47 0 -140 -80z" />
<glyph unicode="&#xf6;" horiz-adv-x="1075" d="M71 441q0 243 143 420.5t374 177.5q190 0 304 -127.5t114 -342.5q0 -221 -136 -408t-364 -187q-113 0 -218.5 50t-161 158.5t-55.5 258.5zM301 404q0 -127 60 -187t147 -60q136 0 200 140.5t64 294.5q0 264 -204 264q-143 0 -205 -151t-62 -301zM381 1295q0 44 31 77.5 t80 33.5q46 0 80 -29.5t34 -80.5q0 -50 -33.5 -79t-80.5 -29q-48 0 -79.5 31.5t-31.5 75.5zM715 1295q0 44 31.5 77.5t80.5 33.5q45 0 79.5 -29.5t34.5 -80.5q0 -50 -33.5 -79t-80.5 -29q-49 0 -80.5 32t-31.5 75z" />
<glyph unicode="&#xf7;" d="M125 594v191h1012v-191h-1012zM507 340q0 51 36 87t87 36q50 0 86 -36t36 -87q0 -50 -36 -86t-86 -36q-51 0 -87 36t-36 86zM507 1036q0 50 36 86t87 36q50 0 86 -36t36 -86q0 -51 -36 -87t-86 -36q-51 0 -87 35.5t-36 87.5z" />
<glyph unicode="&#xf8;" horiz-adv-x="1075" d="M1 -29l145 175q-75 126 -75 294q0 241 141.5 420.5t367.5 179.5q160 0 263 -84l78 87h146l-144 -169q84 -124 84 -292q0 -247 -143 -427.5t-364 -180.5q-150 0 -274 85l-76 -88h-149zM301 394q0 -36 9 -75l394 490q-51 48 -138 48q-137 0 -201 -149.5t-64 -313.5z M362 215q61 -58 141 -58q137 0 203.5 140t66.5 310q0 49 -12 97z" />
<glyph unicode="&#xf9;" horiz-adv-x="1083" d="M98 229q0 49 26 202l98 586h224l-106 -631q-14 -87 -14 -107q0 -49 31 -78t81 -29q69 0 141 57t102 133.5t55 224.5l72 430h224l-170 -1017h-208l37 222q-129 -241 -345 -241q-120 0 -184 77t-64 171zM395 1357l79 130l343 -219l-49 -107z" />
<glyph unicode="&#xfa;" horiz-adv-x="1083" d="M98 229q0 49 26 202l98 586h224l-106 -631q-14 -87 -14 -107q0 -49 31 -78t81 -29q69 0 141 57t102 133.5t55 224.5l72 430h224l-170 -1017h-208l37 222q-129 -241 -345 -241q-120 0 -184 77t-64 171zM513 1268l393 219l66 -136l-417 -190z" />
<glyph unicode="&#xfb;" horiz-adv-x="1083" d="M98 229q0 49 26 202l98 586h224l-106 -631q-14 -87 -14 -107q0 -49 31 -78t81 -29q69 0 141 57t102 133.5t55 224.5l72 430h224l-170 -1017h-208l37 222q-129 -241 -345 -241q-120 0 -184 77t-64 171zM316 1188l403 288l286 -288l-178 -21l-131 132l-203 -132z" />
<glyph unicode="&#xfc;" horiz-adv-x="1083" d="M98 229q0 49 26 202l98 586h224l-106 -631q-14 -87 -14 -107q0 -49 31 -78t81 -29q69 0 141 57t102 133.5t55 224.5l72 430h224l-170 -1017h-208l37 222q-129 -241 -345 -241q-120 0 -184 77t-64 171zM387 1295q0 44 31 77.5t80 33.5q46 0 80 -29.5t34 -80.5 q0 -50 -33.5 -79t-80.5 -29q-48 0 -79.5 31.5t-31.5 75.5zM721 1295q0 44 31.5 77.5t80.5 33.5q45 0 79.5 -29.5t34.5 -80.5q0 -50 -33.5 -79t-80.5 -29q-49 0 -80.5 32t-31.5 75z" />
<glyph unicode="&#xfd;" horiz-adv-x="933" d="M-57 -361l10 194q58 -9 134 -9q71 0 117.5 29.5t84.5 110.5l38 81l-249 972h240l154 -700l336 700h196l-522 -1053q-73 -146 -112 -202t-113.5 -94t-192.5 -38q-56 0 -121 9zM449 1268l393 219l66 -136l-417 -190z" />
<glyph unicode="&#xfe;" horiz-adv-x="1082" d="M-8 -355l288 1720h224l-88 -524q118 211 286 211q144 0 233 -116.5t89 -313.5q0 -245 -120.5 -448t-314.5 -203q-209 0 -284 209l-89 -535h-224zM347 408q0 -127 58.5 -190.5t141.5 -63.5q117 0 180.5 147.5t63.5 303.5q0 263 -160 263q-121 0 -202.5 -143.5 t-81.5 -316.5z" />
<glyph unicode="&#xff;" horiz-adv-x="933" d="M-57 -361l10 194q58 -9 134 -9q71 0 117.5 29.5t84.5 110.5l38 81l-249 972h240l154 -700l336 700h196l-522 -1053q-73 -146 -112 -202t-113.5 -94t-192.5 -38q-56 0 -121 9zM317 1295q0 44 31 77.5t80 33.5q46 0 80 -29.5t34 -80.5q0 -50 -33.5 -79t-80.5 -29 q-48 0 -79.5 31.5t-31.5 75.5zM651 1295q0 44 31.5 77.5t80.5 33.5q45 0 79.5 -29.5t34.5 -80.5q0 -50 -33.5 -79t-80.5 -29q-49 0 -80.5 32t-31.5 75z" />
<glyph unicode="&#x131;" horiz-adv-x="508" d="M52 0l170 1017h235l-170 -1017h-235z" />
<glyph unicode="&#x152;" horiz-adv-x="1766" d="M108 585q0 350 184.5 582t448.5 232q108 0 218 -31h862l-36 -214h-599l-61 -365h498l-33 -201h-498l-63 -374h627l-36 -214h-799q-109 -33 -206 -33q-224 0 -365.5 170t-141.5 448zM368 538q0 -175 69 -270.5t200 -95.5q83 0 148 46l154 920q-88 62 -189 62 q-180 0 -281 -209t-101 -453z" />
<glyph unicode="&#x153;" horiz-adv-x="1707" d="M69 440q0 230 142.5 411.5t366.5 181.5q185 0 314 -136q144 145 346 145q168 0 284.5 -117t116.5 -342q0 -42 -4 -101h-689q-6 -48 -6 -79q0 -126 59 -188.5t153 -62.5q158 0 234 188l199 -52q-142 -314 -447 -314q-202 0 -318 143q-128 -151 -328 -151 q-190 0 -306.5 125t-116.5 349zM303 401q0 -113 48.5 -182.5t148.5 -69.5q140 0 203.5 144.5t63.5 304.5q0 123 -54.5 187.5t-144.5 64.5q-130 0 -197.5 -136t-67.5 -313zM971 625h461q-7 254 -205 254q-190 0 -256 -254z" />
<glyph unicode="&#x178;" horiz-adv-x="1061" d="M85 1365h281l242 -590l388 590h236l-545 -802l-94 -563h-257l96 575zM433 1619q0 44 31 77.5t80 33.5q46 0 80 -29.5t34 -80.5q0 -50 -33.5 -79t-80.5 -29q-48 0 -79.5 31.5t-31.5 75.5zM767 1619q0 44 31.5 77.5t80.5 33.5q45 0 79.5 -29.5t34.5 -80.5q0 -50 -33.5 -79 t-80.5 -29q-49 0 -80.5 32t-31.5 75z" />
<glyph unicode="&#x2c6;" horiz-adv-x="1024" d="M273 1188l403 288l286 -288l-178 -21l-131 132l-203 -132z" />
<glyph unicode="&#x2da;" horiz-adv-x="1024" d="M465 1318q0 77 54.5 132t130.5 55q69 0 127.5 -49t58.5 -141q0 -72 -53.5 -127t-132.5 -55q-77 0 -131 54t-54 131zM569 1319q0 -33 21 -57.5t61 -24.5q42 0 62 25.5t20 52.5q0 38 -21.5 62t-56.5 24q-34 0 -60 -21t-26 -61z" />
<glyph unicode="&#x2dc;" horiz-adv-x="1024" d="M324 1302q114 122 218 122q56 0 130 -39q81 -42 122 -42q63 0 130 74l52 -99q-88 -117 -211 -117q-61 0 -148 47q-69 38 -101 38q-47 0 -140 -80z" />
<glyph unicode="&#x2000;" horiz-adv-x="913" />
<glyph unicode="&#x2001;" horiz-adv-x="1826" />
<glyph unicode="&#x2002;" horiz-adv-x="913" />
<glyph unicode="&#x2003;" horiz-adv-x="1826" />
<glyph unicode="&#x2004;" horiz-adv-x="608" />
<glyph unicode="&#x2005;" horiz-adv-x="456" />
<glyph unicode="&#x2006;" horiz-adv-x="304" />
<glyph unicode="&#x2007;" horiz-adv-x="304" />
<glyph unicode="&#x2008;" horiz-adv-x="228" />
<glyph unicode="&#x2009;" horiz-adv-x="365" />
<glyph unicode="&#x200a;" horiz-adv-x="101" />
<glyph unicode="&#x2010;" horiz-adv-x="493" d="M-14 414l31 183h490l-31 -183h-490z" />
<glyph unicode="&#x2011;" horiz-adv-x="493" d="M-14 414l31 183h490l-31 -183h-490z" />
<glyph unicode="&#x2012;" horiz-adv-x="493" d="M-14 414l31 183h490l-31 -183h-490z" />
<glyph unicode="&#x2013;" d="M172 414l31 183h826l-31 -183h-826z" />
<glyph unicode="&#x2014;" horiz-adv-x="1365" d="M-69 414l31 183h1471l-30 -183h-1472z" />
<glyph unicode="&#x2018;" horiz-adv-x="493" d="M201 885l35 207l182 273h81l-153 -258h109l-37 -222h-217z" />
<glyph unicode="&#x2019;" horiz-adv-x="493" d="M201 885l152 259h-109l37 221h218l-35 -206l-183 -274h-80z" />
<glyph unicode="&#x201a;" horiz-adv-x="493" d="M10 -258l152 258h-109l37 223h218l-35 -208l-183 -273h-80z" />
<glyph unicode="&#x201c;" horiz-adv-x="757" d="M191 871l35 209l190 285h79l-151 -269h96l-37 -225h-212zM482 871l35 208l187 286h80l-153 -269h95l-38 -225h-206z" />
<glyph unicode="&#x201d;" horiz-adv-x="757" d="M177 871l154 269h-95l37 225h208l-35 -208l-188 -286h-81zM466 871l151 269h-96l38 225h211l-35 -209l-190 -285h-79z" />
<glyph unicode="&#x201e;" horiz-adv-x="756" d="M-14 -270l154 270h-95l37 225h208l-35 -208l-188 -287h-81zM275 -270l151 270h-96l38 225h211l-35 -209l-190 -286h-79z" />
<glyph unicode="&#x2022;" horiz-adv-x="1365" d="M435 696q0 118 82.5 202t199.5 84q116 0 198.5 -84t82.5 -202q0 -117 -82.5 -201.5t-198.5 -84.5q-119 0 -200.5 84.5t-81.5 201.5z" />
<glyph unicode="&#x2026;" horiz-adv-x="1494" d="M45 0l42 250h239l-42 -250h-239zM543 0l42 250h238l-42 -250h-238zM1040 0l42 250h239l-42 -250h-239z" />
<glyph unicode="&#x202f;" horiz-adv-x="365" />
<glyph unicode="&#x2039;" horiz-adv-x="426" d="M77 516l202 281h107l-155 -287l59 -286h-89z" />
<glyph unicode="&#x203a;" horiz-adv-x="425" d="M41 224l155 287l-59 286h89l124 -292l-202 -281h-107z" />
<glyph unicode="&#x205f;" horiz-adv-x="456" />
<glyph unicode="&#x20ac;" horiz-adv-x="1200" d="M41 496l16 122h103q0 38 16 134h-100l16 122h111q71 242 227 384.5t354 142.5q205 0 328 -110.5t129 -313.5l-233 -25q-10 260 -234 260q-107 0 -193 -92t-128 -246h307l-17 -122h-319q-11 -60 -18 -134h321l-18 -122h-310q4 -159 66 -247.5t174 -88.5q99 0 184.5 76.5 t114.5 191.5l227 -25q-125 -440 -534 -440q-222 0 -349.5 147t-127.5 386h-113z" />
<glyph unicode="&#x2122;" horiz-adv-x="1573" d="M111 1232l22 133h599l-23 -133h-211l-108 -645h-175l107 645h-211zM671 587l130 778h248l89 -486l234 486h264l-130 -778h-171l106 636l-315 -636h-99l-112 633l-105 -633h-139z" />
<glyph unicode="&#xe000;" horiz-adv-x="1014" d="M0 1015h1015v-1015h-1015v1015z" />
<glyph unicode="&#xfb01;" horiz-adv-x="1105" d="M83 0l140 834h-128l29 183h137q69 259 170.5 328.5t257.5 69.5q53 0 117 -9l-32 -189q-52 7 -78 7q-60 0 -113 -32.5t-84 -174.5h215l-33 -183h-221l-135 -834h-242zM648 0l171 1017h234l-170 -1017h-235zM837 1126l41 245h234l-40 -245h-235z" />
<glyph unicode="&#xfb02;" horiz-adv-x="1103" d="M83 0l140 834h-127l27 183h138q53 219 148 308.5t284 89.5q53 0 111 -9l-31 -187q-56 7 -85 7q-56 0 -107 -34.5t-83 -174.5h216l-32 -183h-221l-136 -834h-242zM647 0l229 1371h235l-229 -1371h-235z" />
<glyph unicode="&#xfb03;" horiz-adv-x="1798" d="M1342 0l170 1017h235l-170 -1017h-235zM1532 1135l41 244h235l-41 -244h-235zM728 0l139 831h-139l31 186h139q40 210 140.5 303t277.5 93q92 0 143 -13l-20 -187q-48 12 -103 12q-193 0 -211 -208h219l-32 -186h-221l-139 -831h-224zM83 0l139 831h-139l31 186h139 q40 210 140.5 303t277.5 93q92 0 143 -13l-20 -187q-48 12 -103 12q-193 0 -211 -208h219l-32 -186h-221l-139 -831h-224z" />
<glyph unicode="&#xfb04;" horiz-adv-x="1798" d="M1342 0l228 1365h235l-228 -1365h-235zM728 0l139 831h-139l31 186h139q40 210 140.5 303t277.5 93q92 0 143 -13l-20 -187q-48 12 -103 12q-193 0 -211 -208h219l-32 -186h-221l-139 -831h-224zM83 0l139 831h-139l31 186h139q40 210 140.5 303t277.5 93q92 0 143 -13 l-20 -187q-48 12 -103 12q-193 0 -211 -208h219l-32 -186h-221l-139 -831h-224z" />
</font>
</defs>
</svg>
