<?xml version="1.0" encoding="utf-8"?>
<!-- Generator: Adobe Illustrator 16.0.0, SVG Export Plug-In . SVG Version: 6.00 Build 0)  -->
<!DOCTYPE svg PUBLIC "-//W3C//DTD SVG 1.1//EN" "http://www.w3.org/Graphics/SVG/1.1/DTD/svg11.dtd">
<svg version="1.1" id="Слой_1" xmlns="http://www.w3.org/2000/svg" xmlns:xlink="http://www.w3.org/1999/xlink" x="0px" y="0px"
	 width="32px" height="32px" viewBox="0 0 32 32" enable-background="new 0 0 32 32" xml:space="preserve">
<rect width="32" height="32.001"/>
<path fill="#FFFFFF" d="M22.322,7.946H9.678c-0.957,0-1.73,0.776-1.73,1.732v12.644c0,0.957,0.773,1.732,1.73,1.732h12.645
	c0.956,0,1.731-0.775,1.731-1.732V9.679C24.054,8.723,23.278,7.946,22.322,7.946 M13.075,14.452
	c0.067-0.131,0.145-0.256,0.229-0.375c0.002-0.003,0.004-0.006,0.006-0.009c0.062-0.085,0.126-0.168,0.195-0.248
	c0.004-0.005,0.008-0.01,0.013-0.015c0.066-0.076,0.135-0.149,0.208-0.219c0.007-0.007,0.016-0.014,0.022-0.021
	c0.021-0.021,0.045-0.042,0.068-0.063c0.008-0.008,0.018-0.016,0.025-0.021c0.041-0.036,0.082-0.07,0.124-0.103
	c0.011-0.01,0.021-0.019,0.034-0.026c0.021-0.018,0.043-0.033,0.065-0.049c0.015-0.012,0.029-0.022,0.045-0.032
	c0.027-0.02,0.055-0.038,0.082-0.058c0.026-0.017,0.053-0.032,0.078-0.049c0.021-0.013,0.04-0.023,0.061-0.036
	c0.02-0.012,0.041-0.023,0.061-0.034c0.02-0.012,0.038-0.022,0.059-0.032c0.035-0.02,0.072-0.038,0.108-0.057
	c0.017-0.008,0.032-0.016,0.049-0.021c0.026-0.013,0.055-0.026,0.081-0.038c0.019-0.007,0.034-0.014,0.053-0.022
	c0.033-0.014,0.066-0.026,0.101-0.039c0.015-0.006,0.028-0.011,0.042-0.016c0.039-0.014,0.077-0.026,0.115-0.039
	c0.015-0.005,0.03-0.01,0.047-0.014c0.035-0.011,0.07-0.021,0.104-0.03c0.013-0.003,0.023-0.007,0.035-0.009
	c0.045-0.012,0.091-0.022,0.138-0.032c0.013-0.003,0.025-0.006,0.039-0.008c0.037-0.007,0.073-0.014,0.111-0.02
	c0.013-0.003,0.026-0.005,0.039-0.007c0.048-0.007,0.096-0.014,0.145-0.018c0.009-0.001,0.018-0.002,0.026-0.003
	c0.042-0.004,0.083-0.007,0.124-0.009c0.016-0.001,0.028-0.002,0.042-0.003c0.05-0.002,0.101-0.003,0.151-0.003
	s0.101,0.001,0.151,0.003c0.014,0.001,0.027,0.002,0.04,0.003c0.042,0.002,0.084,0.005,0.125,0.009
	c0.009,0.001,0.019,0.002,0.027,0.003c0.049,0.004,0.096,0.011,0.144,0.018c0.014,0.002,0.026,0.004,0.039,0.007
	c0.037,0.006,0.074,0.013,0.112,0.02c0.013,0.002,0.025,0.005,0.039,0.008c0.046,0.01,0.092,0.021,0.138,0.032
	c0.012,0.002,0.022,0.006,0.034,0.009c0.036,0.009,0.07,0.02,0.104,0.03c0.016,0.004,0.031,0.009,0.047,0.014
	c0.038,0.013,0.076,0.025,0.115,0.039c0.013,0.005,0.027,0.01,0.042,0.016c0.032,0.013,0.066,0.025,0.101,0.039
	c0.017,0.009,0.035,0.016,0.052,0.022c0.028,0.012,0.055,0.025,0.082,0.037c0.016,0.007,0.032,0.015,0.047,0.022
	c0.037,0.019,0.074,0.037,0.111,0.057c0.019,0.01,0.038,0.021,0.057,0.032c0.021,0.011,0.042,0.022,0.063,0.034
	c0.02,0.013,0.039,0.023,0.06,0.036c0.026,0.017,0.052,0.032,0.077,0.049c0.028,0.02,0.056,0.038,0.082,0.058
	c0.016,0.01,0.031,0.021,0.046,0.032c0.022,0.016,0.043,0.031,0.065,0.049c0.012,0.008,0.022,0.017,0.034,0.026
	c0.042,0.032,0.083,0.066,0.124,0.103c0.008,0.006,0.017,0.014,0.025,0.021c0.023,0.021,0.046,0.041,0.068,0.063
	c0.007,0.007,0.014,0.014,0.021,0.021c0.072,0.069,0.143,0.143,0.208,0.219c0.006,0.005,0.01,0.01,0.015,0.015
	c0.068,0.08,0.134,0.163,0.193,0.248c0.002,0.003,0.005,0.006,0.006,0.009c0.084,0.119,0.161,0.244,0.229,0.375
	c0.236,0.455,0.371,0.972,0.371,1.521c0,1.819-1.477,3.296-3.296,3.296c-1.82,0-3.296-1.477-3.296-3.296
	C12.704,15.424,12.839,14.907,13.075,14.452 M22.19,21.159c0,0.571-0.462,1.033-1.031,1.033H10.841c-0.57,0-1.032-0.462-1.032-1.033
	v-6.706h1.41c-0.153,0.479-0.234,0.989-0.234,1.52c0,2.77,2.245,5.015,5.016,5.015s5.016-2.245,5.016-5.015
	c0-0.53-0.082-1.04-0.234-1.52h1.409V21.159z M22.22,11.865c0,0.448-0.363,0.812-0.811,0.812h-1.303
	c-0.447,0-0.811-0.363-0.811-0.812v-1.302c0-0.448,0.363-0.812,0.811-0.812h1.303c0.447,0,0.811,0.363,0.811,0.812V11.865z"/>
</svg>
