<?xml version="1.0" encoding="utf-8"?>
<!-- Generator: Adobe Illustrator 16.0.0, SVG Export Plug-In . SVG Version: 6.00 Build 0)  -->
<!DOCTYPE svg PUBLIC "-//W3C//DTD SVG 1.1//EN" "http://www.w3.org/Graphics/SVG/1.1/DTD/svg11.dtd">
<svg version="1.1" id="Слой_1" xmlns="http://www.w3.org/2000/svg" xmlns:xlink="http://www.w3.org/1999/xlink" x="0px" y="0px"
	 width="32px" height="32px" viewBox="0 0 32 32" enable-background="new 0 0 32 32" xml:space="preserve">
<rect x="0" fill="#FFFFFF" width="32" height="32"/>
<path d="M7.872,9.023c0,0,2.899,3.843,7.937,4.108c0,0-0.682-2.27,1.409-4.005c2.093-1.739,4.681-0.267,5.176,0.389
	c0,0,1.472-0.23,2.499-0.922c0,0-0.335,1.327-1.576,2.126c0,0,1.453-0.193,2.127-0.584c0,0-0.709,1.135-1.932,2.003
	c0,0,0.514,4.795-3.607,8.756c-4.122,3.963-10.902,3.139-13.349,1.064c0,0,3.323,0.373,5.663-1.621c0,0-2.765-0.053-3.562-2.633
	c0,0,1.382,0.105,1.622-0.16c0,0-2.978-0.716-3.005-3.828c0,0,0.904,0.452,1.728,0.479C9.002,14.196,6.131,12.122,7.872,9.023"/>
</svg>
