<?xml version="1.0" encoding="utf-8"?>
<!-- Generator: Adobe Illustrator 16.0.0, SVG Export Plug-In . SVG Version: 6.00 Build 0)  -->
<!DOCTYPE svg PUBLIC "-//W3C//DTD SVG 1.1//EN" "http://www.w3.org/Graphics/SVG/1.1/DTD/svg11.dtd">
<svg version="1.1" id="Слой_1" xmlns="http://www.w3.org/2000/svg" xmlns:xlink="http://www.w3.org/1999/xlink" x="0px" y="0px"
	 width="32px" height="32px" viewBox="0 0 32 32" enable-background="new 0 0 32 32" xml:space="preserve">
<rect y="-0.001" fill="#FFFFFF" width="32" height="32.001"/>
<path d="M22.32,7.945H9.677c-0.957,0-1.732,0.776-1.732,1.732v12.645c0,0.955,0.775,1.73,1.732,1.73H22.32
	c0.957,0,1.732-0.775,1.732-1.73V9.678C24.053,8.722,23.277,7.945,22.32,7.945 M13.074,14.452c0.068-0.132,0.145-0.257,0.229-0.375
	c0.002-0.003,0.004-0.007,0.006-0.01c0.061-0.085,0.126-0.168,0.195-0.248c0.003-0.005,0.008-0.01,0.013-0.015
	c0.066-0.076,0.135-0.147,0.208-0.218c0.007-0.007,0.014-0.014,0.022-0.021c0.022-0.021,0.045-0.042,0.069-0.062
	c0.007-0.008,0.017-0.015,0.025-0.022c0.041-0.036,0.082-0.069,0.124-0.102c0.011-0.01,0.022-0.02,0.034-0.027
	c0.021-0.017,0.043-0.033,0.066-0.049c0.014-0.011,0.029-0.021,0.045-0.032c0.027-0.019,0.054-0.038,0.082-0.057
	c0.025-0.017,0.052-0.033,0.078-0.049c0.02-0.014,0.04-0.024,0.06-0.036s0.041-0.024,0.061-0.035
	c0.019-0.011,0.038-0.021,0.058-0.032c0.036-0.019,0.073-0.038,0.109-0.056c0.016-0.008,0.032-0.016,0.049-0.022
	c0.026-0.013,0.054-0.025,0.081-0.036c0.018-0.009,0.034-0.016,0.052-0.023c0.034-0.014,0.067-0.027,0.101-0.04
	c0.015-0.005,0.028-0.01,0.042-0.015c0.039-0.015,0.077-0.027,0.115-0.039c0.015-0.005,0.032-0.011,0.047-0.015
	c0.035-0.011,0.069-0.021,0.104-0.029c0.012-0.003,0.023-0.008,0.035-0.01c0.045-0.012,0.091-0.021,0.137-0.031
	c0.013-0.003,0.026-0.006,0.04-0.009c0.037-0.007,0.073-0.014,0.111-0.02c0.013-0.002,0.026-0.004,0.038-0.006
	c0.049-0.007,0.097-0.014,0.145-0.019c0.009-0.001,0.018-0.002,0.027-0.003c0.042-0.004,0.083-0.007,0.124-0.009
	c0.014-0.001,0.028-0.002,0.042-0.003c0.05-0.002,0.1-0.003,0.151-0.003c0.05,0,0.101,0.001,0.152,0.003
	c0.013,0.001,0.027,0.002,0.04,0.003c0.042,0.002,0.084,0.005,0.125,0.009c0.008,0.001,0.018,0.002,0.027,0.003
	c0.049,0.005,0.096,0.012,0.144,0.019c0.013,0.002,0.026,0.004,0.039,0.006c0.037,0.006,0.074,0.013,0.112,0.02
	c0.013,0.003,0.025,0.006,0.039,0.009c0.046,0.01,0.093,0.02,0.138,0.031c0.012,0.002,0.022,0.007,0.035,0.01
	c0.034,0.009,0.069,0.019,0.104,0.029c0.015,0.004,0.031,0.01,0.046,0.015c0.039,0.012,0.076,0.024,0.113,0.039
	c0.016,0.005,0.029,0.01,0.043,0.015c0.033,0.013,0.068,0.026,0.102,0.04c0.018,0.008,0.035,0.015,0.053,0.023
	c0.027,0.011,0.053,0.023,0.082,0.035c0.014,0.008,0.031,0.016,0.047,0.023c0.037,0.018,0.074,0.037,0.109,0.056
	c0.02,0.011,0.039,0.021,0.059,0.032c0.021,0.011,0.041,0.023,0.063,0.035c0.02,0.012,0.039,0.022,0.059,0.036
	c0.027,0.016,0.051,0.032,0.078,0.049c0.027,0.019,0.055,0.038,0.082,0.057c0.014,0.011,0.031,0.021,0.045,0.032
	c0.023,0.016,0.043,0.032,0.066,0.049c0.01,0.008,0.021,0.018,0.033,0.027c0.041,0.032,0.082,0.065,0.123,0.102
	c0.01,0.008,0.018,0.015,0.027,0.022c0.023,0.02,0.045,0.041,0.068,0.062c0.006,0.008,0.014,0.015,0.021,0.021
	c0.072,0.07,0.143,0.142,0.207,0.218c0.006,0.005,0.01,0.01,0.016,0.015c0.068,0.08,0.133,0.163,0.193,0.248
	c0.002,0.003,0.004,0.007,0.006,0.01c0.084,0.118,0.16,0.243,0.229,0.375c0.236,0.455,0.371,0.972,0.371,1.52
	c0,1.819-1.477,3.296-3.295,3.296c-1.82,0-3.296-1.477-3.296-3.296C12.704,15.424,12.838,14.907,13.074,14.452 M22.189,21.158
	c0,0.57-0.461,1.033-1.031,1.033H10.84c-0.57,0-1.032-0.463-1.032-1.033v-6.705h1.409c-0.152,0.479-0.233,0.988-0.233,1.519
	c0,2.771,2.245,5.015,5.015,5.015s5.016-2.244,5.016-5.015c0-0.53-0.082-1.04-0.236-1.519h1.41V21.158z M22.219,11.865
	c0,0.447-0.363,0.811-0.811,0.811h-1.303c-0.447,0-0.811-0.363-0.811-0.811v-1.303c0-0.447,0.363-0.811,0.811-0.811h1.303
	c0.447,0,0.811,0.363,0.811,0.811V11.865z"/>
</svg>
