<?xml version="1.0" encoding="utf-8"?>
<!-- Generator: Adobe Illustrator 16.0.0, SVG Export Plug-In . SVG Version: 6.00 Build 0)  -->
<!DOCTYPE svg PUBLIC "-//W3C//DTD SVG 1.1//EN" "http://www.w3.org/Graphics/SVG/1.1/DTD/svg11.dtd">
<svg version="1.1" id="Слой_1" xmlns="http://www.w3.org/2000/svg" xmlns:xlink="http://www.w3.org/1999/xlink" x="0px" y="0px"
	 width="32px" height="32px" viewBox="0 0 32 32" enable-background="new 0 0 32 32" xml:space="preserve">
<rect width="32" height="32"/>
<path fill="#FFFFFF" d="M7.873,9.024c0,0,2.898,3.842,7.937,4.108c0,0-0.682-2.271,1.409-4.006c2.092-1.738,4.68-0.267,5.176,0.39
	c0,0,1.472-0.231,2.499-0.922c0,0-0.336,1.326-1.577,2.126c0,0,1.454-0.193,2.127-0.584c0,0-0.709,1.135-1.931,2.003
	c0,0,0.513,4.795-3.608,8.757c-4.121,3.963-10.901,3.138-13.348,1.063c0,0,3.323,0.373,5.663-1.621c0,0-2.765-0.054-3.563-2.634
	c0,0,1.383,0.107,1.622-0.159c0,0-2.978-0.718-3.005-3.828c0,0,0.904,0.451,1.729,0.479C9.003,14.196,6.132,12.122,7.873,9.024"/>
</svg>
