<?xml version="1.0" encoding="utf-8"?>
<!-- Generator: Adobe Illustrator 16.0.0, SVG Export Plug-In . SVG Version: 6.00 Build 0)  -->
<!DOCTYPE svg PUBLIC "-//W3C//DTD SVG 1.1//EN" "http://www.w3.org/Graphics/SVG/1.1/DTD/svg11.dtd">
<svg version="1.1" id="Слой_1" xmlns="http://www.w3.org/2000/svg" xmlns:xlink="http://www.w3.org/1999/xlink" x="0px" y="0px"
	 width="185px" height="25px" viewBox="0 0 185 25" enable-background="new 0 0 185 25" xml:space="preserve">
<g>
	<path d="M54.149,9.729c0-1.376,0.328-2.434,0.984-3.171c0.656-0.737,1.64-1.105,2.952-1.105c1.312,0,2.296,0.369,2.952,1.105
		c0.656,0.737,0.984,1.794,0.984,3.171v0.535h-2.527V9.559c0-0.616-0.118-1.049-0.352-1.3c-0.235-0.251-0.563-0.377-0.984-0.377
		c-0.421,0-0.75,0.126-0.984,0.377c-0.235,0.251-0.353,0.684-0.353,1.3c0,0.583,0.129,1.097,0.389,1.542
		c0.259,0.446,0.583,0.867,0.972,1.264c0.389,0.397,0.806,0.793,1.251,1.19c0.445,0.397,0.862,0.83,1.251,1.3
		c0.389,0.47,0.712,1.004,0.972,1.604c0.259,0.6,0.389,1.304,0.389,2.113c0,1.377-0.336,2.434-1.008,3.171
		c-0.672,0.737-1.664,1.105-2.976,1.105s-2.305-0.368-2.977-1.105c-0.672-0.737-1.008-1.794-1.008-3.171v-1.045h2.527v1.215
		c0,0.616,0.125,1.045,0.376,1.288s0.587,0.364,1.008,0.364s0.757-0.121,1.008-0.364s0.377-0.672,0.377-1.288
		c0-0.582-0.13-1.097-0.389-1.543c-0.26-0.445-0.583-0.865-0.972-1.263c-0.389-0.396-0.806-0.794-1.251-1.19
		c-0.446-0.396-0.863-0.83-1.251-1.3s-0.713-1.004-0.972-1.604C54.279,11.244,54.149,10.539,54.149,9.729z"/>
	<path d="M62.798,5.647h8.261v2.429h-2.794v14.578h-2.673V8.077h-2.794V5.647z"/>
	<path d="M79.975,22.654h-2.697l-0.461-3.086h-3.28l-0.461,3.086h-2.454l2.721-17.007h3.912L79.975,22.654z M73.877,17.261h2.575
		L75.165,8.66L73.877,17.261z"/>
	<path d="M86.802,22.654c-0.033-0.113-0.065-0.219-0.097-0.316c-0.033-0.097-0.061-0.219-0.085-0.363
		c-0.024-0.146-0.041-0.332-0.048-0.56c-0.008-0.227-0.012-0.511-0.012-0.851v-2.672c0-0.793-0.138-1.353-0.413-1.677
		c-0.275-0.323-0.721-0.485-1.336-0.485h-0.923v6.924h-2.673V5.647h4.033c1.393,0,2.401,0.324,3.025,0.972s0.936,1.628,0.936,2.94
		v1.336c0,1.75-0.583,2.9-1.75,3.451c0.68,0.275,1.146,0.725,1.397,1.348c0.251,0.624,0.376,1.381,0.376,2.271v2.625
		c0,0.421,0.016,0.789,0.049,1.105c0.032,0.314,0.113,0.635,0.243,0.959H86.802z M83.887,8.077v5.224h1.044
		c0.502,0,0.895-0.13,1.179-0.389c0.283-0.259,0.425-0.729,0.425-1.409V9.826c0-0.615-0.109-1.061-0.328-1.336
		c-0.219-0.275-0.563-0.413-1.033-0.413H83.887z"/>
	<path d="M96.569,22.654c-0.032-0.113-0.065-0.219-0.097-0.316c-0.033-0.097-0.062-0.219-0.086-0.363
		c-0.023-0.146-0.041-0.332-0.049-0.56c-0.008-0.227-0.012-0.511-0.012-0.851v-2.672c0-0.793-0.138-1.353-0.413-1.677
		c-0.275-0.323-0.721-0.485-1.337-0.485h-0.922v6.924h-2.673V5.647h4.033c1.394,0,2.402,0.324,3.025,0.972s0.936,1.628,0.936,2.94
		v1.336c0,1.75-0.584,2.9-1.75,3.451c0.681,0.275,1.146,0.725,1.397,1.348c0.251,0.624,0.376,1.381,0.376,2.271v2.625
		c0,0.421,0.017,0.789,0.049,1.105c0.033,0.314,0.113,0.635,0.243,0.959H96.569z M93.654,8.077v5.224h1.044
		c0.502,0,0.896-0.13,1.179-0.389c0.283-0.259,0.425-0.729,0.425-1.409V9.826c0-0.615-0.109-1.061-0.327-1.336
		c-0.219-0.275-0.563-0.413-1.033-0.413H93.654z"/>
	<path d="M103.42,12.814h3.669v2.43h-3.669v4.98h4.617v2.43h-7.289V5.647h7.289v2.429h-4.617V12.814z"/>
	<path d="M108.911,5.647h8.261v2.429h-2.794v14.578h-2.673V8.077h-2.794V5.647z"/>
	<path d="M117.561,5.647h8.26v2.429h-2.793v14.578h-2.674V8.077h-2.793V5.647z"/>
	<path d="M126.088,12.936h4.859v2.429h-4.859V12.936z"/>
	<path d="M132.769,5.647h2.673v14.577h4.397v2.43h-7.07V5.647z"/>
	<path d="M143.678,12.814h3.668v2.43h-3.668v4.98h4.615v2.43h-7.289V5.647h7.289v2.429h-4.615V12.814z"/>
	<path d="M152.618,22.654h-2.673V5.647h2.673v7.289h3.036V5.647h2.722v17.007h-2.722v-7.289h-3.036V22.654z"/>
	<path d="M160.319,5.647h2.673v17.007h-2.673V5.647z"/>
	<path d="M168.944,13.179h3.741v5.394c0,1.377-0.336,2.434-1.008,3.171c-0.673,0.737-1.665,1.105-2.977,1.105
		c-1.313,0-2.305-0.368-2.977-1.105s-1.008-1.794-1.008-3.171V9.729c0-1.376,0.336-2.434,1.008-3.171
		c0.672-0.737,1.664-1.105,2.977-1.105c1.312,0,2.304,0.369,2.977,1.105c0.672,0.737,1.008,1.794,1.008,3.171v1.652h-2.526V9.559
		c0-0.616-0.126-1.049-0.377-1.3s-0.587-0.377-1.008-0.377c-0.422,0-0.758,0.126-1.009,0.377s-0.377,0.684-0.377,1.3v9.183
		c0,0.616,0.126,1.045,0.377,1.288s0.587,0.364,1.009,0.364c0.421,0,0.757-0.121,1.008-0.364s0.377-0.672,0.377-1.288v-3.134h-1.215
		V13.179z"/>
	<path d="M177.083,22.654h-2.673V5.647h2.673v7.289h3.037V5.647h2.721v17.007h-2.721v-7.289h-3.037V22.654z"/>
</g>
<rect x="18.292" y="3.319" width="15.574" height="3.947"/>
<rect x="18.292" y="8.27" width="22.105" height="3.876"/>
<rect x="2" y="13.15" width="38.397" height="4.094"/>
<rect x="2" y="18.249" width="38.397" height="4.093"/>
</svg>
