<?xml version="1.0" encoding="utf-8"?>
<!-- Generator: Adobe Illustrator 16.0.0, SVG Export Plug-In . SVG Version: 6.00 Build 0)  -->
<!DOCTYPE svg PUBLIC "-//W3C//DTD SVG 1.1//EN" "http://www.w3.org/Graphics/SVG/1.1/DTD/svg11.dtd">
<svg version="1.1" id="Слой_1" xmlns="http://www.w3.org/2000/svg" xmlns:xlink="http://www.w3.org/1999/xlink" x="0px" y="0px"
	 width="228px" height="36px" viewBox="0 0 228 36" enable-background="new 0 0 228 36" xml:space="preserve">
<rect y="0.087" fill="#45B7BC" width="228.1" height="35.913"/>
<path fill="#FFFFFF" d="M29.239,23.553H12.228c-0.201,0-0.321-0.121-0.321-0.32v-8.965l8.666,6.879l8.987-7.133v9.219
	C29.561,23.432,29.44,23.553,29.239,23.553 M28.907,13.443l-8.334,6.579l-8.189-6.579H28.907z M29.881,12.479H11.585
	c-0.402,0-0.642,0.24-0.642,0.642v10.752c0,0.402,0.24,0.643,0.642,0.643h18.296c0.401,0,0.641-0.24,0.641-0.643V13.121
	C30.522,12.719,30.282,12.479,29.881,12.479"/>
<polygon fill="#FFFFFF" points="207.693,14.076 216.142,19.707 207.693,25.34 "/>
<g>
	<path fill="#FFFFFF" d="M39.114,15.063c0-1.084,0.258-1.915,0.774-2.495s1.291-0.87,2.323-0.87c1.033,0,1.807,0.29,2.323,0.87
		c0.516,0.58,0.774,1.411,0.774,2.495v0.42H43.32v-0.554c0-0.484-0.092-0.825-0.277-1.023c-0.185-0.197-0.443-0.296-0.774-0.296
		c-0.332,0-0.59,0.099-0.774,0.296c-0.185,0.198-0.277,0.539-0.277,1.023c0,0.458,0.102,0.863,0.306,1.214
		c0.204,0.351,0.458,0.682,0.765,0.994c0.306,0.313,0.634,0.624,0.984,0.937s0.679,0.653,0.985,1.024
		c0.306,0.369,0.561,0.789,0.765,1.262c0.204,0.471,0.306,1.025,0.306,1.662c0,1.084-0.265,1.916-0.793,2.496
		c-0.529,0.58-1.31,0.869-2.342,0.869c-1.032,0-1.813-0.289-2.342-0.869c-0.529-0.58-0.793-1.412-0.793-2.496v-0.822h1.988v0.957
		c0,0.484,0.099,0.822,0.296,1.014c0.197,0.189,0.462,0.285,0.793,0.285c0.331,0,0.596-0.096,0.793-0.285
		c0.197-0.191,0.296-0.529,0.296-1.014c0-0.459-0.103-0.863-0.306-1.215c-0.204-0.35-0.459-0.682-0.765-0.994
		c-0.306-0.313-0.634-0.625-0.985-0.938c-0.351-0.311-0.679-0.652-0.984-1.022c-0.306-0.369-0.561-0.79-0.765-1.262
		C39.216,16.254,39.114,15.7,39.114,15.063z"/>
	<path fill="#FFFFFF" d="M48.54,11.851v10.325c0,0.484,0.098,0.82,0.296,1.012s0.462,0.287,0.793,0.287s0.596-0.096,0.793-0.287
		s0.296-0.527,0.296-1.012V11.851h1.989v10.19c0,1.084-0.265,1.916-0.793,2.494c-0.529,0.58-1.31,0.871-2.342,0.871
		s-1.813-0.291-2.342-0.871c-0.529-0.578-0.793-1.41-0.793-2.494v-10.19H48.54z"/>
	<path fill="#FFFFFF" d="M57.315,11.851c1.096,0,1.89,0.255,2.38,0.765s0.736,1.28,0.736,2.313v0.478
		c0,0.688-0.108,1.256-0.325,1.701c-0.217,0.446-0.561,0.778-1.033,0.994c0.574,0.218,0.978,0.571,1.214,1.062
		c0.236,0.49,0.354,1.092,0.354,1.807v1.09c0,1.031-0.268,1.818-0.803,2.361c-0.536,0.541-1.332,0.813-2.39,0.813h-3.308V11.851
		H57.315z M56.245,13.762v3.537h0.822c0.395,0,0.704-0.102,0.927-0.306s0.334-0.573,0.334-1.109v-0.745
		c0-0.484-0.086-0.835-0.258-1.052c-0.172-0.217-0.443-0.325-0.813-0.325H56.245z M56.245,19.211v4.111h1.205
		c0.357,0,0.628-0.096,0.813-0.287s0.277-0.535,0.277-1.033v-1.166c0-0.623-0.105-1.051-0.315-1.281
		c-0.21-0.229-0.558-0.344-1.042-0.344H56.245z"/>
	<path fill="#FFFFFF" d="M61.636,15.063c0-1.084,0.258-1.915,0.774-2.495s1.291-0.87,2.323-0.87c1.033,0,1.807,0.29,2.323,0.87
		c0.516,0.58,0.774,1.411,0.774,2.495v0.42h-1.988v-0.554c0-0.484-0.092-0.825-0.277-1.023c-0.185-0.197-0.443-0.296-0.774-0.296
		c-0.332,0-0.59,0.099-0.774,0.296c-0.185,0.198-0.277,0.539-0.277,1.023c0,0.458,0.102,0.863,0.306,1.214
		c0.204,0.351,0.458,0.682,0.765,0.994c0.306,0.313,0.634,0.624,0.984,0.937s0.679,0.653,0.985,1.024
		c0.306,0.369,0.561,0.789,0.765,1.262c0.204,0.471,0.306,1.025,0.306,1.662c0,1.084-0.265,1.916-0.793,2.496
		c-0.529,0.58-1.31,0.869-2.342,0.869c-1.032,0-1.813-0.289-2.342-0.869c-0.529-0.58-0.793-1.412-0.793-2.496v-0.822h1.988v0.957
		c0,0.484,0.099,0.822,0.296,1.014c0.197,0.189,0.462,0.285,0.793,0.285c0.331,0,0.596-0.096,0.793-0.285
		c0.197-0.191,0.296-0.529,0.296-1.014c0-0.459-0.103-0.863-0.306-1.215c-0.204-0.35-0.459-0.682-0.765-0.994
		c-0.306-0.313-0.634-0.625-0.985-0.938c-0.351-0.311-0.679-0.652-0.984-1.022c-0.306-0.369-0.561-0.79-0.765-1.262
		C61.738,16.254,61.636,15.7,61.636,15.063z"/>
	<path fill="#FFFFFF" d="M75.153,20.244v1.777c0,1.084-0.265,1.916-0.793,2.496c-0.529,0.58-1.31,0.869-2.342,0.869
		c-1.032,0-1.813-0.289-2.342-0.869c-0.529-0.58-0.793-1.412-0.793-2.496v-6.958c0-1.084,0.264-1.915,0.793-2.495
		c0.529-0.58,1.31-0.87,2.342-0.87c1.033,0,1.813,0.29,2.342,0.87c0.529,0.58,0.793,1.411,0.793,2.495v1.3h-1.988v-1.434
		c0-0.484-0.099-0.825-0.296-1.023c-0.198-0.197-0.462-0.296-0.793-0.296c-0.332,0-0.596,0.099-0.793,0.296
		c-0.198,0.198-0.296,0.539-0.296,1.023v7.227c0,0.484,0.099,0.822,0.296,1.014c0.197,0.189,0.462,0.285,0.793,0.285
		c0.331,0,0.596-0.096,0.793-0.285c0.197-0.191,0.296-0.529,0.296-1.014v-1.912H75.153z"/>
	<path fill="#FFFFFF" d="M80.831,25.234c-0.026-0.09-0.051-0.172-0.077-0.25c-0.025-0.076-0.047-0.172-0.067-0.285
		c-0.019-0.115-0.032-0.262-0.038-0.439c-0.006-0.18-0.01-0.402-0.01-0.67v-2.104c0-0.625-0.108-1.064-0.325-1.318
		c-0.217-0.256-0.567-0.383-1.052-0.383h-0.727v5.449h-2.103V11.851h3.174c1.096,0,1.89,0.255,2.38,0.765s0.736,1.28,0.736,2.313
		v1.051c0,1.377-0.458,2.282-1.376,2.715c0.536,0.217,0.902,0.571,1.1,1.061c0.197,0.492,0.296,1.088,0.296,1.787v2.066
		c0,0.33,0.012,0.621,0.038,0.869c0.025,0.248,0.089,0.5,0.191,0.756H80.831z M78.537,13.762v4.111h0.822
		c0.395,0,0.704-0.103,0.927-0.307c0.223-0.203,0.334-0.573,0.334-1.108v-1.319c0-0.484-0.086-0.835-0.258-1.052
		c-0.172-0.217-0.443-0.325-0.813-0.325H78.537z"/>
	<path fill="#FFFFFF" d="M84.119,11.851h2.103v13.383h-2.103V11.851z"/>
	<path fill="#FFFFFF" d="M90.925,11.851c1.096,0,1.89,0.255,2.38,0.765s0.736,1.28,0.736,2.313v0.478
		c0,0.688-0.108,1.256-0.325,1.701c-0.217,0.446-0.561,0.778-1.033,0.994c0.574,0.218,0.978,0.571,1.214,1.062
		c0.236,0.49,0.354,1.092,0.354,1.807v1.09c0,1.031-0.268,1.818-0.803,2.361c-0.536,0.541-1.332,0.813-2.39,0.813h-3.308V11.851
		H90.925z M89.854,13.762v3.537h0.822c0.395,0,0.704-0.102,0.927-0.306s0.334-0.573,0.334-1.109v-0.745
		c0-0.484-0.086-0.835-0.258-1.052c-0.172-0.217-0.443-0.325-0.813-0.325H89.854z M89.854,19.211v4.111h1.205
		c0.357,0,0.628-0.096,0.813-0.287s0.277-0.535,0.277-1.033v-1.166c0-0.623-0.105-1.051-0.315-1.281
		c-0.21-0.229-0.558-0.344-1.042-0.344H89.854z"/>
	<path fill="#FFFFFF" d="M97.617,17.491h2.887v1.912h-2.887v3.92h3.633v1.912h-5.736V11.851h5.736v1.911h-3.633V17.491z"/>
	<path fill="#FFFFFF" d="M107.616,17.796h2.715v1.913h-2.715v5.525h-2.104V11.851h5.563v1.911h-3.46V17.796z"/>
	<path fill="#FFFFFF" d="M111.918,15.063c0-1.084,0.273-1.915,0.822-2.495c0.548-0.58,1.338-0.87,2.37-0.87
		c1.033,0,1.823,0.29,2.371,0.87s0.822,1.411,0.822,2.495v6.958c0,1.084-0.274,1.916-0.822,2.496s-1.338,0.869-2.371,0.869
		c-1.032,0-1.822-0.289-2.37-0.869c-0.549-0.58-0.822-1.412-0.822-2.496V15.063z M114.021,22.156c0,0.484,0.099,0.824,0.297,1.021
		c0.197,0.199,0.462,0.297,0.793,0.297c0.332,0,0.596-0.098,0.794-0.297c0.197-0.197,0.296-0.537,0.296-1.021v-7.227
		c0-0.484-0.099-0.825-0.296-1.023c-0.198-0.197-0.462-0.296-0.794-0.296c-0.331,0-0.596,0.099-0.793,0.296
		c-0.198,0.198-0.297,0.539-0.297,1.023V22.156z"/>
	<path fill="#FFFFFF" d="M124.059,25.234c-0.025-0.09-0.051-0.172-0.076-0.25c-0.026-0.076-0.048-0.172-0.067-0.285
		c-0.019-0.115-0.032-0.262-0.038-0.439c-0.007-0.18-0.01-0.402-0.01-0.67v-2.104c0-0.625-0.108-1.064-0.325-1.318
		c-0.217-0.256-0.566-0.383-1.051-0.383h-0.727v5.449h-2.104V11.851h3.174c1.096,0,1.89,0.255,2.38,0.765
		c0.491,0.51,0.736,1.28,0.736,2.313v1.051c0,1.377-0.459,2.282-1.376,2.715c0.535,0.217,0.901,0.571,1.099,1.061
		c0.198,0.492,0.297,1.088,0.297,1.787v2.066c0,0.33,0.013,0.621,0.038,0.869s0.089,0.5,0.191,0.756H124.059z M121.765,13.762v4.111
		h0.822c0.395,0,0.704-0.103,0.927-0.307c0.223-0.203,0.335-0.573,0.335-1.108v-1.319c0-0.484-0.086-0.835-0.259-1.052
		c-0.172-0.217-0.442-0.325-0.813-0.325H121.765z"/>
	<path fill="#FFFFFF" d="M132.317,11.851v10.325c0,0.484,0.099,0.82,0.296,1.012s0.462,0.287,0.794,0.287
		c0.331,0,0.596-0.096,0.793-0.287s0.297-0.527,0.297-1.012V11.851h1.988v10.19c0,1.084-0.265,1.916-0.794,2.494
		c-0.528,0.58-1.31,0.871-2.342,0.871s-1.813-0.291-2.342-0.871c-0.529-0.578-0.794-1.41-0.794-2.494v-10.19H132.317z"/>
	<path fill="#FFFFFF" d="M141.017,11.851c1.058,0,1.845,0.28,2.361,0.841c0.516,0.561,0.773,1.383,0.773,2.466v1.74
		c0,1.084-0.258,1.905-0.773,2.467c-0.517,0.561-1.304,0.84-2.361,0.84h-0.994v5.029h-2.104V11.851H141.017z M140.022,13.762v4.531
		h0.994c0.331,0,0.586-0.089,0.765-0.268c0.178-0.178,0.268-0.51,0.268-0.994v-2.008c0-0.483-0.09-0.815-0.268-0.994
		c-0.179-0.178-0.434-0.268-0.765-0.268H140.022z"/>
	<path fill="#FFFFFF" d="M145.223,11.851h3.327c1.058,0,1.845,0.28,2.361,0.841c0.516,0.561,0.773,1.383,0.773,2.466v6.768
		c0,1.084-0.258,1.906-0.773,2.467c-0.517,0.561-1.304,0.842-2.361,0.842h-3.327V11.851z M147.326,13.762v9.56h1.186
		c0.331,0,0.592-0.096,0.783-0.287s0.287-0.529,0.287-1.014v-6.958c0-0.484-0.096-0.822-0.287-1.014s-0.452-0.287-0.783-0.287
		H147.326z"/>
	<path fill="#FFFFFF" d="M159.829,25.234h-2.122l-0.363-2.428h-2.581l-0.363,2.428h-1.932l2.142-13.383h3.078L159.829,25.234z
		 M155.03,20.99h2.026l-1.014-6.769L155.03,20.99z"/>
	<path fill="#FFFFFF" d="M160.192,11.851h6.5v1.911h-2.198v11.472h-2.104V13.762h-2.198V11.851z"/>
	<path fill="#FFFFFF" d="M169.714,17.491h2.887v1.912h-2.887v3.92h3.632v1.912h-5.735V11.851h5.735v1.911h-3.632V17.491z"/>
	<path fill="#FFFFFF" d="M174.378,15.063c0-1.084,0.258-1.915,0.774-2.495s1.29-0.87,2.323-0.87c1.032,0,1.807,0.29,2.322,0.87
		c0.517,0.58,0.774,1.411,0.774,2.495v0.42h-1.988v-0.554c0-0.484-0.093-0.825-0.277-1.023c-0.185-0.197-0.442-0.296-0.774-0.296
		c-0.331,0-0.589,0.099-0.774,0.296c-0.185,0.198-0.276,0.539-0.276,1.023c0,0.458,0.102,0.863,0.306,1.214
		c0.203,0.351,0.459,0.682,0.765,0.994s0.634,0.624,0.984,0.937s0.679,0.653,0.984,1.024c0.307,0.369,0.562,0.789,0.766,1.262
		c0.203,0.471,0.306,1.025,0.306,1.662c0,1.084-0.265,1.916-0.794,2.496c-0.528,0.58-1.31,0.869-2.342,0.869
		s-1.813-0.289-2.342-0.869c-0.529-0.58-0.794-1.412-0.794-2.496v-0.822h1.988v0.957c0,0.484,0.099,0.822,0.297,1.014
		c0.197,0.189,0.462,0.285,0.793,0.285c0.332,0,0.596-0.096,0.794-0.285c0.197-0.191,0.296-0.529,0.296-1.014
		c0-0.459-0.102-0.863-0.306-1.215c-0.204-0.35-0.459-0.682-0.765-0.994s-0.635-0.625-0.984-0.938
		c-0.351-0.311-0.679-0.652-0.985-1.022c-0.306-0.369-0.561-0.79-0.765-1.262S174.378,15.7,174.378,15.063z"/>
</g>
</svg>
